<svg version="1.0" xmlns="http://www.w3.org/2000/svg"
 width="500.000000pt" height="500.000000pt" viewBox="0 0 500.000000 500.000000"
 preserveAspectRatio="xMidYMid meet">
 <style>
    </style>
<metadata>
Created by potrace 1.14, written by Peter Selinger 2001-2017
</metadata>
<g transform="translate(0.000000,500.000000) scale(0.100000,-0.100000)"
fill="#000000" stroke="none">
<path d="M2370 4419 c0 -5 5 -7 10 -4 6 3 10 8 10 11 0 2 -4 4 -10 4 -5 0 -10
-5 -10 -11z"/>
<path d="M2520 4420 c-9 -6 -10 -10 -3 -10 6 0 15 5 18 10 8 12 4 12 -15 0z"/>
<path d="M2553 4405 c0 -8 4 -12 9 -9 5 3 6 10 3 15 -9 13 -12 11 -12 -6z"/>
<path d="M2584 4398 c-12 -14 -13 -18 -3 -10 9 6 18 10 21 7 2 -3 5 2 5 10 0
19 0 19 -23 -7z"/>
<path d="M2175 4400 c3 -5 8 -10 11 -10 2 0 4 5 4 10 0 6 -5 10 -11 10 -5 0
-7 -4 -4 -10z"/>
<path d="M2266 4402 c-3 -5 1 -9 9 -9 8 0 12 4 9 9 -3 4 -7 8 -9 8 -2 0 -6 -4
-9 -8z"/>
<path d="M2311 4393 c7 -12 15 -20 18 -17 3 2 -3 12 -13 22 -17 16 -18 16 -5
-5z"/>
<path d="M2640 4405 c0 -2 6 -8 13 -14 10 -8 14 -7 14 2 0 8 -6 14 -14 14 -7
0 -13 -1 -13 -2z"/>
<path d="M2400 4396 c0 -2 7 -7 16 -10 8 -3 12 -2 9 4 -6 10 -25 14 -25 6z"/>
<path d="M2110 4380 c0 -5 5 -10 11 -10 5 0 7 5 4 10 -3 6 -8 10 -11 10 -2 0
-4 -4 -4 -10z"/>
<path d="M2436 4373 c-6 -14 -5 -15 5 -6 7 7 10 15 7 18 -3 3 -9 -2 -12 -12z"/>
<path d="M2500 4386 c0 -2 7 -6 15 -10 8 -3 15 -1 15 4 0 6 -7 10 -15 10 -8 0
-15 -2 -15 -4z"/>
<path d="M2672 4370 c-7 -11 -18 -20 -25 -20 -8 0 -7 4 3 10 8 5 10 10 5 10
-6 0 -16 -5 -23 -12 -9 -9 -15 -9 -24 0 -7 7 -17 12 -22 12 -6 0 -4 -5 4 -10
13 -8 12 -10 -2 -10 -10 0 -18 5 -18 11 0 8 -4 8 -12 2 -15 -11 -28 -11 -47 1
-8 5 -16 4 -21 -4 -6 -10 -9 -9 -13 1 -5 12 -7 12 -15 1 -10 -15 -21 -15 -40
1 -9 7 -16 7 -20 1 -9 -13 -54 -16 -47 -3 4 5 2 9 -4 9 -5 0 -12 -6 -15 -12
-3 -9 -10 -7 -21 7 l-17 20 6 -20 c5 -17 1 -20 -24 -22 -17 -1 -30 2 -30 8 0
6 4 8 8 5 5 -3 9 2 9 11 0 12 -5 10 -19 -7 -23 -28 -46 -34 -67 -17 -11 9 -13
9 -8 0 10 -16 -14 -22 -37 -11 -12 7 -16 7 -12 0 9 -15 -21 -23 -32 -9 -6 7
-10 15 -9 19 1 3 -1 9 -5 13 -3 4 -5 0 -4 -9 1 -8 5 -19 9 -22 13 -13 7 -22
-10 -19 -10 1 -27 -2 -37 -8 -15 -7 -23 -5 -34 9 -13 16 -14 17 -9 2 4 -11 -1
-21 -13 -28 -28 -15 -38 -12 -16 5 11 8 15 15 8 15 -6 0 -17 -9 -26 -21 -10
-15 -20 -19 -36 -14 -15 5 -20 4 -16 -4 7 -11 -3 -15 -42 -13 -12 1 -20 -3
-17 -7 3 -5 -9 -14 -25 -20 -24 -8 -29 -7 -25 2 4 7 -1 3 -9 -7 -9 -11 -19
-17 -22 -13 -4 4 -13 -1 -19 -10 -11 -14 -16 -15 -28 -5 -12 10 -17 10 -23 1
-5 -8 -3 -9 6 -4 8 5 11 3 8 -6 -3 -8 -13 -13 -22 -13 -9 1 -16 -2 -16 -7 0
-5 -21 -19 -46 -30 -39 -19 -47 -20 -56 -8 -7 11 -8 9 -4 -6 4 -15 -1 -23 -21
-32 -23 -11 -30 -10 -47 5 -21 17 -21 17 -3 -4 22 -26 22 -41 0 -23 -14 12
-16 12 -11 -1 4 -14 -36 -50 -79 -69 -13 -6 -23 -16 -23 -22 0 -7 -2 -10 -5
-7 -3 3 -20 -9 -38 -26 -18 -17 -49 -45 -68 -62 -47 -40 -52 -50 -26 -51 89
-2 98 -3 91 -15 -5 -9 -2 -9 9 1 14 11 17 11 17 0 0 -11 2 -11 10 1 8 12 10
10 11 -10 1 -16 3 -19 6 -8 3 13 13 16 46 13 23 -2 42 -4 42 -5 0 -8 113 -5
123 3 10 8 16 7 24 -4 8 -11 9 -10 4 4 -4 11 0 20 11 24 9 4 25 15 36 26 16
16 21 17 28 6 8 -13 13 -5 10 15 -1 5 5 6 14 3 9 -4 15 -1 15 9 0 8 5 12 10 9
6 -4 7 -11 4 -17 -4 -7 -2 -8 4 -4 6 4 8 14 5 23 -4 11 -3 14 5 9 7 -4 12 -2
12 5 0 8 4 8 15 -1 13 -11 14 -10 9 6 -7 18 -6 18 17 -1 13 -11 18 -13 12 -5
-18 19 -16 35 1 21 11 -9 16 -9 22 0 4 8 3 9 -4 5 -7 -4 -12 -4 -12 1 0 4 11
13 25 20 20 9 27 8 34 -4 7 -13 9 -13 14 1 4 10 13 13 24 10 15 -5 15 -4 3 5
-17 12 -12 19 18 24 12 2 24 6 28 9 3 4 12 4 20 1 8 -3 14 -1 14 5 0 5 18 14
40 20 22 5 37 6 34 1 -3 -5 2 -6 10 -3 9 3 13 10 10 15 -7 11 18 7 27 -4 8
-11 51 -18 44 -6 -4 5 1 12 9 15 9 3 14 9 11 13 -2 4 1 8 8 8 7 0 30 4 52 8
22 4 61 8 87 8 26 0 45 4 42 8 -2 4 5 5 15 2 11 -3 22 -12 24 -22 4 -12 5 -11
6 4 1 19 7 21 79 19 177 -4 277 -18 265 -38 -4 -6 1 -5 10 3 20 16 27 12 30
-17 1 -17 5 -19 19 -11 16 9 17 29 2 29 -3 0 -2 -4 1 -10 3 -5 1 -10 -4 -10
-6 0 -11 4 -11 8 0 18 14 21 34 9 12 -8 29 -13 39 -11 9 1 17 -2 17 -6 0 -5 8
-7 19 -5 10 2 31 -3 46 -11 16 -8 39 -15 51 -16 16 -2 20 -6 14 -12 -6 -6 -10
-14 -10 -19 0 -5 7 -1 16 7 16 17 39 12 28 -6 -4 -6 1 -8 14 -4 12 4 31 2 42
-4 17 -9 19 -14 9 -26 -6 -8 -9 -17 -5 -21 3 -3 6 0 6 7 0 10 5 9 18 -3 10
-10 22 -17 26 -17 5 0 -2 8 -15 18 -15 13 -19 21 -11 26 7 4 12 2 12 -4 0 -6
5 -8 12 -4 7 5 8 3 3 -6 -6 -10 -4 -12 9 -7 11 5 15 3 10 -5 -5 -8 -2 -9 9 -5
11 4 17 1 17 -8 0 -8 5 -15 11 -15 5 0 7 6 4 13 -4 6 0 4 8 -6 8 -10 21 -16
28 -15 8 2 13 -2 12 -9 -1 -6 4 -14 13 -17 10 -4 13 -2 8 7 -8 12 26 -11 37
-26 3 -5 10 -9 15 -9 12 -1 57 -30 66 -43 4 -5 8 -6 8 -1 0 5 8 2 17 -5 9 -8
14 -9 10 -3 -4 7 0 14 8 18 8 3 19 -3 24 -12 7 -11 11 -12 11 -4 0 7 4 11 9 7
5 -3 13 -1 16 5 5 8 12 7 23 -2 12 -10 14 -10 8 0 -5 9 3 12 31 13 21 0 47 2
58 4 11 3 42 7 69 10 27 3 53 8 58 11 5 3 -11 24 -34 46 -24 23 -42 44 -41 48
1 4 -4 7 -11 7 -7 0 -39 19 -70 44 -50 39 -62 56 -57 82 1 5 -3 6 -8 3 -5 -3
-20 6 -34 20 -19 19 -27 22 -33 12 -4 -7 -4 -10 0 -7 7 7 66 -40 66 -53 0 -4
-18 5 -40 19 -22 15 -40 30 -40 35 0 4 -3 7 -7 7 -22 -4 -36 4 -60 29 -15 15
-23 21 -18 13 9 -15 -75 27 -87 44 -4 5 -10 6 -14 3 -3 -4 -21 0 -38 9 -17 10
-35 16 -41 14 -5 -1 -4 3 3 10 15 16 16 29 1 29 -5 0 -7 -4 -4 -10 4 -6 -5
-10 -19 -10 -16 0 -26 6 -26 14 0 22 -19 29 -36 15 -9 -8 -18 -9 -22 -3 -4 5
-18 11 -32 13 -14 1 -27 6 -30 10 -4 6 -20 9 -67 13 -7 1 -10 5 -7 9 2 4 -4 7
-13 7 -10 0 -31 3 -48 6 -30 7 -59 12 -83 15 -8 0 -10 6 -6 14 6 9 5 9 -7 0
-11 -9 -25 -10 -47 -4 -17 5 -34 6 -38 3 -4 -4 -5 5 -2 19 3 16 0 26 -8 26 -7
0 -10 -6 -7 -13 8 -20 -5 -33 -27 -27 -16 4 -18 8 -9 19 7 8 10 16 8 19 -3 2
-10 -5 -17 -15z m488 -120 c0 -5 -2 -10 -4 -10 -3 0 -8 5 -11 10 -3 6 -1 10 4
10 6 0 11 -4 11 -10z m-990 -205 c-12 -15 -30 -12 -30 6 0 5 10 9 21 9 18 0
19 -2 9 -15z m-260 -69 c0 -3 -4 -8 -10 -11 -5 -3 -10 -1 -10 4 0 6 5 11 10
11 6 0 10 -2 10 -4z"/>
<path d="M2750 4386 c0 -2 7 -7 16 -10 8 -3 12 -2 9 4 -6 10 -25 14 -25 6z"/>
<path d="M2195 4360 c-3 -5 -1 -10 4 -10 6 0 11 5 11 10 0 6 -2 10 -4 10 -3 0
-8 -4 -11 -10z"/>
<path d="M2757 4359 c7 -7 15 -10 18 -7 3 3 -2 9 -12 12 -14 6 -15 5 -6 -5z"/>
<path d="M2793 4355 c0 -8 4 -12 9 -9 5 3 6 10 3 15 -9 13 -12 11 -12 -6z"/>
<path d="M2841 4354 c0 -11 3 -14 6 -6 3 7 2 16 -1 19 -3 4 -6 -2 -5 -13z"/>
<path d="M2910 4356 c7 -7 13 -7 20 0 6 6 3 10 -10 10 -13 0 -16 -4 -10 -10z"/>
<path d="M2025 4340 c-3 -6 1 -7 9 -4 18 7 21 14 7 14 -6 0 -13 -4 -16 -10z"/>
<path d="M2994 4329 c-3 -6 -2 -15 3 -20 5 -5 9 -1 9 11 0 23 -2 24 -12 9z"/>
<path d="M2040 4326 c0 -2 7 -7 16 -10 8 -3 12 -2 9 4 -6 10 -25 14 -25 6z"/>
<path d="M3025 4319 c-11 -16 -1 -19 13 -3 7 8 8 14 3 14 -5 0 -13 -5 -16 -11z"/>
<path d="M3061 4316 c-9 -11 -9 -16 1 -22 7 -4 10 -4 6 1 -4 4 -3 14 3 22 6 7
9 13 6 13 -2 0 -10 -6 -16 -14z"/>
<path d="M1925 4297 c-15 -12 -16 -15 -4 -22 8 -5 11 -5 7 0 -4 4 0 14 10 21
23 18 11 18 -13 1z"/>
<path d="M3084 4299 c-3 -6 -2 -15 3 -20 5 -5 9 -1 9 11 0 23 -2 24 -12 9z"/>
<path d="M3110 4306 c0 -2 7 -7 16 -10 8 -3 12 -2 9 4 -6 10 -25 14 -25 6z"/>
<path d="M1795 4280 c-4 -6 -1 -9 7 -8 7 2 12 -3 10 -10 -1 -8 2 -11 8 -7 8 5
7 11 -1 21 -14 17 -16 17 -24 4z"/>
<path d="M1857 4276 c-4 -10 -1 -13 8 -9 8 3 12 9 9 14 -7 12 -11 11 -17 -5z"/>
<path d="M1756 4262 c-3 -5 1 -9 9 -9 8 0 12 4 9 9 -3 4 -7 8 -9 8 -2 0 -6 -4
-9 -8z"/>
<path d="M1797 4239 c7 -7 15 -10 18 -7 3 3 -2 9 -12 12 -14 6 -15 5 -6 -5z"/>
<path d="M1723 4215 c-3 -9 -3 -18 -1 -21 3 -3 8 4 11 16 6 23 -1 27 -10 5z"/>
<path d="M1630 4200 c0 -5 5 -10 11 -10 5 0 7 5 4 10 -3 6 -8 10 -11 10 -2 0
-4 -4 -4 -10z"/>
<path d="M3326 4201 c-3 -5 1 -11 9 -14 9 -4 12 -1 8 9 -6 16 -10 17 -17 5z"/>
<path d="M3375 4180 c3 -5 8 -10 11 -10 2 0 4 5 4 10 0 6 -5 10 -11 10 -5 0
-7 -4 -4 -10z"/>
<path d="M1603 4163 c-15 -5 -17 -23 -4 -23 5 0 11 7 15 15 3 8 4 15 3 14 -1
0 -8 -3 -14 -6z"/>
<path d="M3350 4166 c0 -2 7 -7 16 -10 8 -3 12 -2 9 4 -6 10 -25 14 -25 6z"/>
<path d="M3410 4158 c0 -11 12 -10 30 2 12 7 10 9 -8 7 -12 0 -22 -5 -22 -9z"/>
<path d="M3475 4131 c-3 -5 -2 -12 3 -15 5 -3 9 1 9 9 0 17 -3 19 -12 6z"/>
<path d="M3450 4121 c0 -6 4 -13 10 -16 6 -3 7 1 4 9 -7 18 -14 21 -14 7z"/>
<path d="M1515 4110 c3 -6 1 -10 -6 -10 -7 0 -10 -3 -6 -6 3 -3 13 -2 22 4 16
8 16 9 1 15 -10 4 -15 3 -11 -3z"/>
<path d="M3596 4087 c3 -10 9 -15 12 -12 3 3 0 11 -7 18 -10 9 -11 8 -5 -6z"/>
<path d="M2445 4081 c-3 -5 -2 -12 3 -15 5 -3 9 1 9 9 0 17 -3 19 -12 6z"/>
<path d="M2495 4080 c-3 -5 -1 -10 4 -10 6 0 11 5 11 10 0 6 -2 10 -4 10 -3 0
-8 -4 -11 -10z"/>
<path d="M2536 4077 c3 -10 9 -15 12 -12 3 3 0 11 -7 18 -10 9 -11 8 -5 -6z"/>
<path d="M2571 4074 c0 -11 3 -14 6 -6 3 7 2 16 -1 19 -3 4 -6 -2 -5 -13z"/>
<path d="M2300 4072 c0 -6 -8 -9 -17 -6 -15 5 -16 4 -3 -5 16 -11 40 3 27 16
-4 3 -7 1 -7 -5z"/>
<path d="M2320 4060 c-6 -11 -8 -20 -6 -20 3 0 10 9 16 20 6 11 8 20 6 20 -3
0 -10 -9 -16 -20z"/>
<path d="M2396 4067 c3 -10 9 -15 12 -12 3 3 0 11 -7 18 -10 9 -11 8 -5 -6z"/>
<path d="M2595 4069 c-4 -6 -5 -12 -2 -15 2 -3 7 2 10 11 7 17 1 20 -8 4z"/>
<path d="M2625 4067 c-15 -12 -16 -15 -4 -22 8 -5 10 -4 6 0 -4 5 3 15 15 22
13 7 18 12 12 13 -5 0 -18 -6 -29 -13z"/>
<path d="M2679 4078 c-6 -13 -4 -46 2 -42 4 2 5 12 2 20 -5 14 -3 14 14 6 13
-7 24 -7 34 -1 12 9 12 10 -1 6 -8 -2 -23 0 -32 5 -10 5 -19 7 -19 6z"/>
<path d="M2250 4063 c0 -6 8 -17 18 -24 16 -13 16 -13 2 6 -8 11 -16 22 -17
24 -2 2 -3 0 -3 -6z"/>
<path d="M2347 4063 c-3 -5 5 -8 18 -8 13 0 21 3 18 8 -2 4 -10 7 -18 7 -8 0
-16 -3 -18 -7z"/>
<path d="M2473 4049 c-2 -23 3 -25 10 -4 4 8 3 16 -1 19 -4 3 -9 -4 -9 -15z"/>
<path d="M2515 4061 c-3 -5 -2 -12 3 -15 5 -3 9 1 9 9 0 17 -3 19 -12 6z"/>
<path d="M1420 4049 c0 -5 -6 -7 -12 -3 -7 4 -9 3 -5 -1 13 -15 36 -14 30 1
-6 17 -13 18 -13 3z"/>
<path d="M2215 4050 c-3 -6 1 -7 9 -4 18 7 21 14 7 14 -6 0 -13 -4 -16 -10z"/>
<path d="M2751 4044 c0 -11 3 -14 6 -6 3 7 2 16 -1 19 -3 4 -6 -2 -5 -13z"/>
<path d="M1386 4022 c-3 -4 4 -9 15 -9 23 -2 25 3 4 10 -8 4 -16 3 -19 -1z"/>
<path d="M2198 4023 c7 -3 16 -2 19 1 4 3 -2 6 -13 5 -11 0 -14 -3 -6 -6z"/>
<path d="M2590 4019 c0 -5 5 -7 10 -4 6 3 10 8 10 11 0 2 -4 4 -10 4 -5 0 -10
-5 -10 -11z"/>
<path d="M2950 4013 c6 -13 15 -23 20 -23 15 0 21 18 9 26 -8 4 -9 3 -5 -4 11
-19 -5 -14 -21 6 -13 15 -13 15 -3 -5z"/>
<path d="M2040 4012 c0 -7 -5 -10 -12 -6 -7 4 -8 3 -4 -5 4 -6 12 -9 17 -6 5
4 9 1 9 -6 0 -7 3 -10 6 -6 3 3 1 14 -5 24 -6 11 -11 13 -11 5z"/>
<path d="M2110 4009 c0 -5 5 -7 10 -4 6 3 10 8 10 11 0 2 -4 4 -10 4 -5 0 -10
-5 -10 -11z"/>
<path d="M2916 4005 c4 -8 8 -15 10 -15 2 0 4 7 4 15 0 8 -4 15 -10 15 -5 0
-7 -7 -4 -15z"/>
<path d="M3620 4015 c0 -5 5 -17 10 -25 5 -8 10 -10 10 -5 0 6 -5 17 -10 25
-5 8 -10 11 -10 5z"/>
<path d="M3653 3992 c-1 -22 0 -24 9 -8 6 10 6 22 2 26 -5 5 -10 -3 -11 -18z"/>
<path d="M1329 3997 c6 -8 7 -18 3 -22 -4 -5 -1 -5 6 -1 10 6 10 11 1 22 -6 8
-14 14 -16 14 -3 0 0 -6 6 -13z"/>
<path d="M1355 4000 c3 -5 8 -10 11 -10 2 0 4 5 4 10 0 6 -5 10 -11 10 -5 0
-7 -4 -4 -10z"/>
<path d="M2093 3991 c0 -11 5 -18 9 -15 4 3 5 11 1 19 -7 21 -12 19 -10 -4z"/>
<path d="M2190 4001 c0 -6 4 -13 10 -16 6 -3 7 1 4 9 -7 18 -14 21 -14 7z"/>
<path d="M1296 3973 c-4 -9 -3 -20 1 -24 4 -4 9 3 9 17 2 28 -1 31 -10 7z"/>
<path d="M1953 3964 c0 -17 2 -22 7 -13 5 6 6 18 3 26 -8 19 -10 16 -10 -13z"/>
<path d="M1970 3986 c0 -2 7 -7 16 -10 8 -3 12 -2 9 4 -6 10 -25 14 -25 6z"/>
<path d="M3011 3953 c7 -12 15 -20 18 -17 3 2 -3 12 -13 22 -17 16 -18 16 -5
-5z"/>
<path d="M3099 3963 c0 -5 -2 -16 -4 -26 -2 -11 0 -16 3 -12 4 4 7 12 7 18 1
7 7 11 14 9 7 -1 10 2 6 8 -7 12 -25 13 -26 3z"/>
<path d="M3670 3960 c0 -5 5 -10 11 -10 5 0 7 5 4 10 -3 6 -8 10 -11 10 -2 0
-4 -4 -4 -10z"/>
<path d="M3759 3933 c-13 -16 -12 -17 4 -4 16 13 21 21 13 21 -2 0 -10 -8 -17
-17z"/>
<path d="M1858 3928 c-7 -17 15 -19 29 -3 4 4 3 5 -4 2 -6 -4 -13 -2 -15 5 -3
8 -6 6 -10 -4z"/>
<path d="M1770 3882 c0 -4 9 -8 20 -9 11 -1 20 2 20 5 0 4 -9 8 -20 9 -11 1
-20 -2 -20 -5z"/>
<path d="M3215 3880 c3 -5 8 -10 11 -10 2 0 4 5 4 10 0 6 -5 10 -11 10 -5 0
-7 -4 -4 -10z"/>
<path d="M3193 3865 c0 -8 4 -12 9 -9 5 3 6 10 3 15 -9 13 -12 11 -12 -6z"/>
<path d="M1730 3856 c0 -2 8 -10 18 -17 15 -13 16 -12 3 4 -13 16 -21 21 -21
13z"/>
<path d="M1672 3845 c4 -4 0 -14 -10 -21 -15 -12 -15 -12 6 -7 24 6 29 18 10
29 -7 4 -10 4 -6 -1z"/>
<path d="M3360 3831 c0 -6 4 -13 10 -16 6 -3 7 1 4 9 -7 18 -14 21 -14 7z"/>
<path d="M3335 3820 c-3 -5 -1 -10 4 -10 6 0 11 5 11 10 0 6 -2 10 -4 10 -3 0
-8 -4 -11 -10z"/>
<path d="M1295 3800 c-3 -5 -1 -10 4 -10 6 0 11 5 11 10 0 6 -2 10 -4 10 -3 0
-8 -4 -11 -10z"/>
<path d="M3655 3800 c-2 -3 5 -6 15 -7 11 -1 22 2 24 5 3 4 -4 8 -15 8 -11 0
-22 -3 -24 -6z"/>
<path d="M3586 3784 c-5 -14 -4 -15 9 -4 17 14 19 20 6 20 -5 0 -12 -7 -15
-16z"/>
<path d="M1488 3783 c6 -2 9 -10 6 -15 -4 -7 -2 -8 5 -4 13 9 5 26 -12 25 -9
0 -8 -2 1 -6z"/>
<path d="M3537 3783 c-9 -8 12 -33 27 -33 6 0 3 5 -7 11 -9 6 -15 14 -12 20 7
10 2 12 -8 2z"/>
<path d="M1439 3778 c-5 -18 -6 -38 -1 -34 7 8 12 36 6 36 -2 0 -4 -1 -5 -2z"/>
<path d="M3413 3765 c0 -8 4 -12 9 -9 5 3 6 10 3 15 -9 13 -12 11 -12 -6z"/>
<path d="M1509 3743 c-13 -16 -12 -17 4 -4 9 7 17 15 17 17 0 8 -8 3 -21 -13z"/>
<path d="M4316 3667 c3 -10 9 -15 12 -12 3 3 0 11 -7 18 -10 9 -11 8 -5 -6z"/>
<path d="M489 3656 c8 -9 47 -49 88 -89 40 -39 73 -78 73 -84 0 -7 7 -13 15
-13 12 0 13 -4 5 -19 -15 -29 -12 -38 4 -15 8 10 18 16 22 12 4 -4 1 -14 -5
-22 -10 -12 -9 -14 8 -9 15 4 25 -3 40 -28 11 -18 18 -36 15 -41 -3 -4 2 -5
10 -2 20 8 32 -22 17 -40 -15 -18 6 -34 22 -17 9 9 7 10 -8 5 -18 -7 -19 -6
-6 9 15 19 21 17 25 -5 1 -7 14 -26 29 -43 43 -46 52 -57 73 -90 10 -16 31
-43 46 -60 15 -16 28 -35 28 -40 0 -6 9 -16 20 -23 12 -7 18 -16 16 -21 -3 -5
3 -16 14 -26 11 -10 16 -24 13 -33 -5 -11 -3 -13 7 -7 10 6 12 4 7 -7 -3 -10
0 -15 11 -14 9 0 16 -5 14 -12 -1 -7 5 -15 13 -18 9 -4 20 -14 25 -24 8 -15 6
-17 -13 -13 -14 2 -11 -1 9 -10 18 -8 35 -21 39 -28 5 -8 4 -10 -3 -5 -7 4
-12 2 -12 -3 0 -6 6 -11 14 -11 8 0 17 -7 20 -16 4 -10 2 -13 -7 -8 -6 4 3 -6
21 -23 37 -36 38 -41 15 -60 -16 -13 -16 -13 4 -4 30 15 38 14 23 -4 -11 -13
-10 -14 6 -9 10 4 16 4 12 -1 -4 -4 3 -16 15 -27 12 -11 16 -17 10 -13 -7 3
-13 1 -13 -4 0 -6 7 -11 15 -11 22 0 29 -24 15 -52 -10 -21 -10 -21 3 -5 18
21 31 22 23 1 -3 -8 -2 -12 3 -9 5 3 13 0 17 -6 4 -8 3 -9 -4 -5 -7 4 -12 2
-12 -4 0 -6 -4 -8 -10 -5 -5 3 -10 1 -10 -5 0 -6 11 -8 26 -6 22 4 25 2 21
-16 -7 -25 20 -69 37 -62 12 4 54 -50 52 -66 -1 -3 14 -25 32 -48 19 -23 31
-42 28 -42 -3 0 10 -23 30 -51 20 -28 31 -48 25 -45 -6 4 -8 -2 -6 -15 3 -15
0 -19 -10 -15 -9 3 -12 0 -9 -8 3 -7 11 -13 19 -13 8 0 12 4 9 9 -3 4 1 8 8 8
10 0 9 3 -2 11 -10 7 -11 9 -2 7 8 -2 13 -8 13 -13 0 -6 9 -19 20 -31 10 -11
16 -24 12 -27 -3 -4 -1 -7 6 -7 7 0 9 -5 4 -12 -12 -21 -14 -50 -2 -43 6 4 8
13 5 21 -3 8 -2 14 2 14 11 0 53 -90 47 -100 -3 -4 0 -19 5 -32 10 -22 10 -22
5 4 -3 17 -1 28 5 28 6 0 8 -4 5 -10 -3 -5 -1 -10 5 -10 6 0 8 -5 5 -10 -3 -6
1 -13 9 -16 9 -3 16 -12 16 -19 0 -7 7 -18 15 -25 8 -7 13 -16 10 -20 -3 -5 2
-15 10 -24 14 -13 13 -16 -2 -25 -10 -5 -14 -13 -10 -17 5 -5 12 -2 17 6 10
16 9 17 37 -31 16 -28 18 -40 10 -49 -9 -10 -8 -12 5 -7 12 4 21 -2 31 -23 8
-15 11 -32 6 -37 -4 -4 -3 -15 2 -23 9 -13 10 -12 5 3 -3 9 -1 17 4 17 9 0 11
-7 9 -26 0 -3 7 -11 17 -18 13 -10 14 -15 4 -21 -9 -6 -11 -4 -5 6 8 12 6 12
-8 0 -22 -18 -22 -20 8 -17 13 2 22 -1 19 -5 -3 -5 1 -9 8 -9 7 0 2 -9 -12
-20 l-25 -20 28 10 c22 8 28 7 25 -2 -3 -7 4 -21 14 -32 10 -11 18 -26 18 -33
0 -7 4 -13 10 -13 6 0 6 -9 -1 -26 -5 -15 -7 -29 -4 -32 2 -3 9 6 13 19 9 23
9 23 16 -8 4 -18 13 -33 19 -33 7 0 3 -7 -7 -15 -11 -8 -14 -15 -7 -15 7 0 9
-5 5 -12 -4 -7 -3 -8 5 -4 6 4 9 12 6 17 -4 5 -3 9 2 9 12 -1 45 -78 38 -90
-3 -5 1 -10 9 -10 9 0 15 -3 14 -7 -1 -5 8 -28 20 -52 12 -24 19 -48 16 -52
-3 -5 3 -9 12 -9 10 0 14 -3 11 -7 -4 -3 -1 -13 6 -21 9 -13 9 -14 0 -8 -9 5
-11 2 -7 -8 3 -9 10 -14 14 -11 4 3 10 -2 14 -10 6 -17 -9 -29 -26 -19 -7 5
-8 3 -4 -5 5 -7 15 -10 23 -7 10 4 22 -11 41 -52 14 -31 27 -59 28 -62 1 -6
15 -39 48 -113 26 -59 34 -84 16 -57 -6 9 -10 10 -10 3 0 -7 6 -16 14 -20 18
-11 34 -44 31 -65 -2 -9 4 -19 12 -22 12 -5 13 -9 4 -20 -9 -11 -9 -16 0 -22
8 -5 9 -3 4 6 -6 9 -4 11 4 5 7 -4 11 -15 8 -25 -3 -11 1 -21 9 -24 8 -3 14
-16 14 -30 0 -14 5 -28 11 -31 6 -4 8 -13 5 -21 -3 -8 -1 -14 5 -14 6 0 7 -4
4 -10 -3 -5 -1 -10 6 -10 7 0 10 -3 7 -6 -4 -3 0 -22 9 -42 8 -20 17 -44 19
-55 2 -10 6 -27 9 -38 4 -12 2 -19 -6 -19 -8 0 -7 -4 3 -12 9 -7 21 -40 27
-72 11 -62 21 -84 21 -48 0 11 5 24 10 27 6 4 8 10 5 16 -9 13 6 80 16 73 5
-3 6 1 3 9 -6 16 30 160 38 152 3 -3 8 1 12 10 3 9 2 14 -2 11 -5 -3 -9 1 -9
9 0 18 9 19 26 3 10 -11 11 -10 6 4 -4 10 -12 18 -19 18 -6 1 0 8 14 16 14 8
17 13 7 10 -12 -4 -17 -2 -14 6 2 7 14 12 25 10 12 -2 22 1 22 7 0 6 -6 8 -14
5 -35 -13 -29 36 7 55 12 6 14 9 5 7 -10 -3 -18 -1 -18 4 0 6 4 10 10 10 5 0
9 3 9 8 -4 21 2 42 12 42 5 0 7 -6 3 -12 -5 -9 -3 -9 9 1 17 13 14 36 -4 26
-5 -4 -9 0 -9 8 0 8 7 18 16 21 8 3 12 11 8 17 -4 7 1 18 11 26 11 7 13 13 6
13 -7 0 -9 5 -6 10 5 8 11 7 21 -1 8 -6 17 -9 21 -5 3 3 1 6 -6 6 -7 0 -9 5
-5 12 4 6 3 8 -4 4 -6 -3 -13 -2 -17 4 -3 5 -1 10 4 10 6 0 10 3 9 8 -1 4 3
17 10 28 6 12 8 24 5 28 -3 3 -1 6 5 6 7 0 11 3 10 8 -2 4 6 27 16 52 11 25
20 47 21 50 11 34 27 58 49 69 14 8 24 16 21 19 -2 3 -11 -1 -20 -8 -23 -19
-19 -5 27 89 23 47 41 90 40 95 -2 5 4 6 12 3 19 -7 31 9 15 19 -8 5 -9 3 -4
-6 5 -8 4 -11 -3 -6 -6 4 -9 13 -5 22 4 10 9 11 18 4 8 -7 12 -5 12 5 0 8 -4
15 -9 15 -5 0 -7 4 -4 9 4 5 17 8 31 7 13 -2 22 1 19 6 -3 5 -12 7 -20 4 -18
-7 -17 1 5 44 9 19 23 34 31 32 10 -2 11 0 3 10 -13 15 8 53 22 40 5 -4 5 1 2
10 -7 18 22 78 37 78 5 0 3 -6 -3 -14 -9 -11 -9 -16 0 -22 8 -5 9 -3 4 6 -6 9
-4 12 6 8 10 -4 15 1 15 12 0 10 -4 17 -7 14 -4 -2 -10 0 -14 6 -6 10 6 14 35
11 13 -2 13 -1 0 8 -8 5 -18 7 -24 4 -11 -7 31 65 47 82 7 7 7 5 2 -4 -5 -10
-4 -12 4 -7 6 4 8 12 5 18 -7 11 27 88 39 88 4 0 7 7 7 15 0 8 5 15 11 15 5 0
7 -5 3 -11 -4 -8 0 -7 15 1 18 9 21 30 5 30 -3 0 -2 -5 1 -10 3 -6 2 -10 -3
-10 -35 0 -8 49 28 51 22 2 22 2 4 6 -19 4 -20 7 -10 28 6 14 15 25 19 25 4 0
2 -10 -4 -22 -9 -19 -9 -21 1 -11 7 6 13 24 14 40 1 15 15 48 32 73 17 25 33
53 37 63 7 19 28 22 43 7 7 -7 11 -6 11 4 0 8 -4 13 -9 10 -4 -3 -8 0 -8 6 0
6 -5 8 -12 4 -7 -4 -2 6 10 23 12 17 22 36 22 42 0 6 5 11 10 11 6 0 9 3 8 8
-2 4 5 18 14 30 14 21 19 22 40 12 l23 -11 -23 18 c-13 10 -20 22 -16 26 12
12 26 8 18 -5 -6 -10 -5 -10 8 -1 8 7 17 10 21 7 3 -3 3 3 0 15 -3 12 -10 21
-15 21 -5 0 -7 4 -3 10 3 5 13 7 23 4 14 -5 15 -4 2 5 -8 5 -11 13 -7 17 3 4
15 1 24 -7 17 -13 17 -12 0 7 -16 19 -16 22 -2 27 8 4 15 13 15 22 0 18 12 19
28 3 7 -7 12 -8 12 -4 0 5 -7 14 -17 21 -13 9 -13 14 -3 20 9 6 11 4 5 -5 -6
-9 -4 -11 4 -6 7 5 10 14 7 22 -3 7 3 18 12 23 9 6 14 11 9 11 -4 0 0 11 9 24
8 14 21 23 29 20 7 -3 16 -1 20 5 3 7 0 8 -9 5 -9 -3 -16 -1 -16 4 0 6 10 12
22 14 13 2 22 9 20 17 -2 9 4 12 17 8 14 -3 18 -1 14 9 -4 10 -10 11 -24 3
-11 -5 -17 -14 -14 -20 4 -5 -2 -9 -11 -9 -15 0 -14 4 6 25 13 14 20 25 16 25
-4 0 2 9 13 21 11 13 24 18 32 14 7 -5 10 -4 5 3 -3 5 -3 12 1 15 5 2 2 2 -4
1 -18 -5 -16 -1 11 29 13 14 26 32 29 39 3 10 9 8 21 -7 17 -20 17 -19 6 4 -9
18 -9 29 1 47 16 31 25 30 33 -2 4 -15 9 -24 13 -21 3 3 -2 19 -10 36 -13 26
-13 32 -1 42 11 9 18 8 29 -1 13 -11 14 -10 9 4 -3 9 -10 16 -16 16 -9 0 10
30 52 80 17 20 19 21 11 4 -6 -12 -7 -24 -4 -28 3 -3 -1 -6 -10 -6 -22 0 -38
-32 -26 -51 8 -12 10 -12 8 1 -3 33 1 42 19 38 18 -5 20 2 23 65 0 9 4 17 10
17 9 0 13 -13 10 -40 -2 -13 0 -13 8 -1 6 10 6 21 0 34 -10 18 0 40 26 59 6 4
6 8 1 8 -4 0 5 15 20 34 16 19 38 46 49 60 35 46 46 56 56 51 5 -4 6 0 4 7 -3
8 1 22 9 33 12 17 16 18 32 5 17 -14 18 -13 6 2 -10 13 -11 22 -2 37 14 27 18
26 30 -1 8 -20 9 -18 7 12 -1 23 2 34 10 33 8 -2 10 4 6 14 -4 11 -3 14 5 9 7
-4 12 -1 12 9 0 12 6 15 23 10 17 -5 19 -4 7 5 -13 9 -12 12 4 25 11 8 17 15
13 15 -8 0 16 30 87 106 38 42 52 52 66 44 12 -6 17 -5 17 5 0 7 -6 11 -14 8
-18 -7 -16 5 3 24 13 14 17 14 26 2 7 -10 8 -8 3 9 -5 17 -2 22 11 22 10 0 15
3 12 6 -8 7 25 42 35 37 4 -2 7 2 7 11 0 8 6 17 12 20 21 10 -58 -5 -103 -19
-11 -4 -27 -1 -35 6 -12 10 -13 9 -8 -5 5 -12 0 -16 -19 -16 -14 0 -38 -5 -53
-10 -20 -8 -29 -8 -34 0 -5 8 -9 7 -13 -3 -6 -17 -56 -20 -75 -4 -7 5 -15 7
-19 3 -3 -3 -1 -6 5 -6 7 0 12 -4 12 -10 0 -15 -19 -12 -36 5 -9 8 -20 15 -25
15 -6 0 -3 -7 5 -16 20 -19 20 -20 -1 -20 -10 -1 -43 -4 -73 -8 -39 -5 -51 -4
-40 3 11 8 11 11 2 11 -7 0 -15 -7 -18 -15 -3 -8 -16 -14 -27 -14 -12 0 -38
-3 -57 -7 -19 -3 -56 -7 -82 -8 -27 0 -48 -3 -48 -6 0 -3 -15 -6 -32 -8 -18
-1 -51 -3 -73 -5 -22 -2 -46 -7 -54 -11 -10 -6 -12 -5 -7 2 8 13 -6 16 -18 5
-4 -5 -26 -9 -48 -10 -30 -1 -38 1 -29 10 6 6 11 16 11 22 0 5 -9 -3 -20 -20
-11 -16 -20 -24 -20 -17 0 6 -5 12 -11 12 -5 0 -8 -4 -5 -9 3 -5 -10 -8 -30
-7 -20 1 -38 -2 -41 -7 -3 -4 -12 0 -20 10 -8 10 -12 13 -9 7 3 -7 -1 -14 -9
-18 -8 -3 -15 0 -15 6 0 7 -4 7 -14 -1 -16 -13 -37 -11 -48 4 -5 6 -8 5 -8 -2
0 -7 -6 -13 -14 -13 -8 0 -24 -14 -36 -30 -12 -17 -26 -27 -32 -24 -6 4 -8 2
-4 -4 3 -6 -1 -18 -10 -26 -8 -9 -12 -16 -8 -16 4 0 -6 -12 -22 -26 -16 -15
-22 -23 -14 -19 8 3 6 -1 -5 -10 -11 -9 -20 -21 -20 -26 0 -6 -7 -16 -16 -22
-16 -12 -19 -18 -19 -37 0 -5 -5 -10 -11 -10 -8 0 -8 5 1 15 7 8 8 15 4 15 -5
0 -15 -9 -22 -21 -8 -12 -9 -18 -3 -14 6 3 11 1 11 -5 0 -6 -7 -13 -15 -16 -8
-4 -15 -14 -15 -24 0 -10 -8 -24 -17 -31 -17 -13 -17 -13 -3 6 8 11 10 17 6
13 -5 -4 -16 -2 -25 5 -13 10 -14 10 -6 -3 13 -19 12 -39 -3 -68 -8 -13 -18
-20 -25 -16 -7 4 -9 4 -5 -1 11 -12 -21 -67 -34 -59 -8 5 -9 2 -5 -9 4 -12 1
-17 -9 -17 -11 0 -14 -5 -10 -16 4 -11 2 -15 -8 -11 -9 4 -14 0 -14 -11 2 -25
-42 -93 -55 -85 -6 4 -8 0 -4 -10 3 -9 1 -22 -6 -29 -20 -22 -53 -72 -60 -92
-5 -12 -13 -16 -23 -12 -13 5 -14 4 -6 -7 9 -10 5 -23 -15 -53 -15 -21 -34
-45 -42 -52 -13 -11 -13 -12 -1 -7 10 4 9 2 -2 -8 -10 -8 -14 -18 -10 -22 4
-5 1 -4 -7 0 -11 6 -13 4 -8 -9 5 -13 2 -16 -12 -14 -10 2 -17 -1 -17 -7 1 -5
4 -9 9 -7 4 1 7 -3 7 -9 0 -6 -9 -9 -20 -6 -24 6 -37 -10 -21 -26 9 -9 11 -8
5 6 -5 13 -2 16 9 11 13 -5 14 -9 4 -24 -7 -13 -15 -16 -23 -9 -6 5 -19 6 -28
3 -13 -5 -14 -9 -5 -20 6 -8 17 -14 23 -14 6 0 4 4 -4 10 -8 5 -11 12 -7 17 5
4 12 1 17 -7 7 -10 5 -19 -6 -27 -8 -6 -15 -14 -15 -17 3 -22 -1 -27 -14 -23
-8 4 -17 2 -20 -3 -4 -6 -1 -10 4 -10 6 0 11 -5 11 -11 0 -8 -5 -7 -16 2 -12
10 -17 10 -23 0 -6 -8 -15 1 -30 31 -32 64 -54 100 -73 122 -10 10 -15 22 -13
27 3 4 -1 13 -8 21 -16 16 -77 107 -77 114 0 3 -9 19 -20 34 -13 18 -16 31
-10 35 13 8 13 25 -1 25 -5 0 -7 -4 -4 -10 3 -5 3 -10 -1 -10 -7 0 -28 24 -44
52 -9 14 -7 16 6 11 12 -4 15 -3 10 5 -4 7 -12 12 -17 12 -13 0 -48 41 -49 56
0 6 -7 17 -15 24 -18 15 -20 60 -3 60 6 0 8 3 4 7 -4 5 -14 -1 -22 -11 -14
-19 -14 -19 -14 3 0 12 -4 20 -8 17 -5 -3 -19 14 -32 37 -13 23 -30 50 -38 60
-8 9 -12 17 -7 17 4 0 -3 9 -16 20 -13 10 -19 19 -14 20 6 0 17 -6 24 -12 10
-11 11 -10 6 5 -4 9 -16 17 -26 17 -11 0 -23 10 -28 24 -5 13 -21 36 -36 51
-19 21 -22 30 -13 36 10 7 10 11 -1 21 -10 10 -12 10 -7 1 4 -7 3 -13 -2 -13
-17 0 -22 13 -10 27 10 12 8 14 -8 11 -14 -2 -19 3 -18 19 0 12 -2 20 -6 18
-9 -6 -23 7 -54 47 -15 20 -25 41 -22 46 5 9 -42 14 -131 15 -34 1 -54 5 -57
14 -4 10 -11 11 -24 4 -10 -5 -49 -7 -88 -4 -38 3 -75 5 -81 6 -7 0 -13 6 -13
13 0 21 -17 25 -31 6 -13 -15 -12 -16 4 -3 14 11 17 11 17 -1 0 -8 -10 -14
-25 -14 -17 0 -24 5 -22 15 1 10 -6 16 -20 17 -13 1 -20 -3 -16 -12 3 -8 -2
-11 -14 -9 -10 2 -26 4 -36 4 -10 1 -15 6 -12 11 3 6 1 10 -4 10 -6 0 -11 -4
-11 -9 0 -13 -40 -9 -41 4 -1 5 -1 17 0 25 2 13 1 13 -8 0 -5 -8 -7 -18 -5
-22 12 -19 -15 -6 -30 15 l-17 22 12 -24 c10 -21 9 -23 -6 -18 -9 4 -23 7 -31
7 -9 0 -12 5 -8 13 6 10 4 10 -7 0 -18 -18 -27 -16 -32 5 -4 16 -5 16 -6 -1
-1 -14 -6 -17 -22 -12 -12 4 -28 8 -35 9 -7 1 -17 6 -21 11 -4 4 -3 5 3 2 6
-3 11 0 11 8 0 13 -3 13 -18 -1 -23 -21 -51 -14 -67 16 -12 23 -13 23 -8 3 3
-16 -1 -23 -11 -23 -8 0 -13 6 -10 13 3 8 -3 13 -18 13 -13 0 -21 -4 -19 -8 3
-4 -2 -8 -10 -8 -8 0 -18 5 -21 10 -3 6 -1 10 6 10 7 0 9 3 6 7 -4 3 -16 -2
-27 -12 -11 -10 -20 -13 -20 -7 0 5 -8 9 -17 7 -10 -1 -26 2 -36 7 -10 5 -37
11 -59 14 -51 5 -80 13 -74 22 2 4 -10 7 -27 7 -18 0 -43 4 -57 9 -23 8 -24 7
-11 -8z m851 -120 c0 -3 -4 -8 -10 -11 -5 -3 -10 -1 -10 4 0 6 5 11 10 11 6 0
10 -2 10 -4z m54 -1068 c-3 -5 -12 -1 -20 9 -20 27 -17 39 6 18 11 -10 17 -22
14 -27z m1116 -88 c0 -5 -5 -10 -11 -10 -5 0 -7 5 -4 10 3 6 8 10 11 10 2 0 4
-4 4 -10z m970 -110 c0 -5 -2 -10 -4 -10 -3 0 -8 5 -11 10 -3 6 -1 10 4 10 6
0 11 -4 11 -10z"/>
<path d="M807 3659 c7 -7 15 -10 18 -7 3 3 -2 9 -12 12 -14 6 -15 5 -6 -5z"/>
<path d="M4150 3659 c0 -5 5 -7 10 -4 6 3 10 8 10 11 0 2 -4 4 -10 4 -5 0 -10
-5 -10 -11z"/>
<path d="M4175 3649 c-4 -6 -5 -12 -2 -15 2 -3 7 2 10 11 7 17 1 20 -8 4z"/>
<path d="M904 3638 c-4 -7 -3 -8 5 -4 6 4 20 2 29 -6 15 -12 16 -11 3 5 -16
20 -27 22 -37 5z"/>
<path d="M4106 3642 c-3 -5 1 -9 9 -9 8 0 12 4 9 9 -3 4 -7 8 -9 8 -2 0 -6 -4
-9 -8z"/>
<path d="M4205 3637 c-15 -12 -16 -15 -4 -22 8 -5 11 -5 7 0 -4 4 0 14 10 21
23 18 11 18 -13 1z"/>
<path d="M4281 3634 c0 -11 3 -14 6 -6 3 7 2 16 -1 19 -3 4 -6 -2 -5 -13z"/>
<path d="M770 3619 c0 -5 5 -7 10 -4 6 3 10 8 10 11 0 2 -4 4 -10 4 -5 0 -10
-5 -10 -11z"/>
<path d="M4230 3620 c0 -5 5 -10 10 -10 6 0 10 5 10 10 0 6 -4 10 -10 10 -5 0
-10 -4 -10 -10z"/>
<path d="M4091 3604 c0 -11 3 -14 6 -6 3 7 2 16 -1 19 -3 4 -6 -2 -5 -13z"/>
<path d="M915 3600 c3 -5 8 -10 11 -10 2 0 4 5 4 10 0 6 -5 10 -11 10 -5 0 -7
-4 -4 -10z"/>
<path d="M3846 3602 c-3 -5 1 -9 9 -9 8 0 12 4 9 9 -3 4 -7 8 -9 8 -2 0 -6 -4
-9 -8z"/>
<path d="M3935 3599 c-8 -12 0 -22 19 -25 7 -1 13 4 13 12 0 11 -3 11 -16 1
-12 -10 -14 -9 -8 6 7 19 2 23 -8 6z"/>
<path d="M4042 3601 c-11 -7 -11 -9 0 -14 9 -3 15 1 15 9 0 8 -1 14 -1 14 -1
0 -7 -4 -14 -9z"/>
<path d="M1000 3586 c0 -3 9 -10 20 -16 11 -6 20 -8 20 -6 0 3 -9 10 -20 16
-11 6 -20 8 -20 6z"/>
<path d="M1070 3579 c0 -5 5 -7 10 -4 6 3 10 8 10 11 0 2 -4 4 -10 4 -5 0 -10
-5 -10 -11z"/>
<path d="M1106 3577 c3 -10 9 -15 12 -12 3 3 0 11 -7 18 -10 9 -11 8 -5 -6z"/>
<path d="M1440 3580 c-9 -6 -10 -10 -3 -10 6 0 15 5 18 10 8 12 4 12 -15 0z"/>
<path d="M3577 3583 c-2 -5 -3 -15 -2 -23 0 -8 -8 -20 -19 -27 -20 -11 -19
-11 5 -10 21 2 25 7 25 34 0 34 -2 39 -9 26z"/>
<path d="M3615 3583 c3 -3 -1 -13 -8 -21 -8 -11 -8 -14 0 -9 6 4 14 1 17 -5 2
-7 4 -3 2 9 -1 12 -5 25 -9 28 -4 3 -5 2 -2 -2z"/>
<path d="M3910 3581 c0 -6 4 -13 10 -16 6 -3 7 1 4 9 -7 18 -14 21 -14 7z"/>
<path d="M1274 3572 c3 -5 0 -13 -6 -15 -8 -3 -6 -6 5 -6 19 -1 23 14 5 25 -6
4 -8 3 -4 -4z"/>
<path d="M3755 3570 c-4 -6 -11 -8 -16 -5 -5 4 -9 2 -9 -4 0 -5 9 -9 19 -8 11
0 18 4 15 8 -2 4 2 10 8 12 9 4 10 6 1 6 -6 1 -15 -4 -18 -9z"/>
<path d="M1205 3560 c-3 -5 -1 -10 4 -10 6 0 11 5 11 10 0 6 -2 10 -4 10 -3 0
-8 -4 -11 -10z"/>
<path d="M1355 3560 c-3 -5 -1 -10 4 -10 6 0 11 5 11 10 0 6 -2 10 -4 10 -3 0
-8 -4 -11 -10z"/>
<path d="M1396 3558 c3 -5 10 -6 15 -3 13 9 11 12 -6 12 -8 0 -12 -4 -9 -9z"/>
<path d="M1556 3555 c-3 -9 -11 -13 -17 -9 -8 5 -9 3 -4 -5 6 -10 11 -9 23 3
9 8 13 18 10 21 -3 3 -8 -1 -12 -10z"/>
<path d="M3485 3560 c-3 -5 -1 -10 5 -10 6 0 8 -5 4 -12 -4 -7 -3 -8 4 -4 6 4
9 13 5 21 -6 18 -10 19 -18 5z"/>
<path d="M3796 3558 c3 -5 10 -6 15 -3 13 9 11 12 -6 12 -8 0 -12 -4 -9 -9z"/>
<path d="M3830 3560 c0 -5 5 -10 11 -10 5 0 7 5 4 10 -3 6 -8 10 -11 10 -2 0
-4 -4 -4 -10z"/>
<path d="M1414 3538 c-4 -6 -3 -8 4 -4 5 3 12 1 14 -5 2 -7 9 -10 16 -8 8 3 5
9 -7 16 -15 9 -22 10 -27 1z"/>
<path d="M1470 3541 c0 -6 6 -13 13 -18 18 -11 47 -14 47 -4 0 5 -10 8 -22 7
-14 -1 -22 4 -20 12 1 6 -2 12 -8 12 -5 0 -10 -4 -10 -9z"/>
<path d="M1692 3545 c4 -4 3 -14 -4 -22 -6 -7 -9 -15 -7 -18 3 -2 10 4 17 15
9 15 9 21 -1 26 -6 4 -9 4 -5 -1z"/>
<path d="M3293 3535 c0 -8 4 -12 9 -9 5 3 6 10 3 15 -9 13 -12 11 -12 -6z"/>
<path d="M3353 3533 c0 -10 4 -10 16 -1 9 7 18 13 20 15 2 1 -5 1 -16 0 -11 0
-20 -7 -20 -14z"/>
<path d="M3457 3539 c7 -7 15 -10 18 -7 3 3 -2 9 -12 12 -14 6 -15 5 -6 -5z"/>
<path d="M3660 3540 c-18 -12 -2 -12 25 0 13 6 15 9 5 9 -8 0 -22 -4 -30 -9z"/>
<path d="M588 3519 c6 -9 9 -18 6 -22 -3 -3 1 -4 10 -3 8 1 18 5 21 9 3 4 2 5
-2 2 -3 -3 -16 3 -27 12 -15 14 -18 14 -8 2z"/>
<path d="M1620 3520 c0 -5 5 -10 11 -10 5 0 7 5 4 10 -3 6 -8 10 -11 10 -2 0
-4 -4 -4 -10z"/>
<path d="M3320 3520 c-9 -6 -10 -10 -3 -10 6 0 15 5 18 10 8 12 4 12 -15 0z"/>
<path d="M3395 3520 c3 -5 8 -10 11 -10 2 0 4 5 4 10 0 6 -5 10 -11 10 -5 0
-7 -4 -4 -10z"/>
<path d="M1815 3500 c-3 -5 -1 -10 4 -10 6 0 11 5 11 10 0 6 -2 10 -4 10 -3 0
-8 -4 -11 -10z"/>
<path d="M3216 3497 c3 -10 9 -15 12 -12 3 3 0 11 -7 18 -10 9 -11 8 -5 -6z"/>
<path d="M4388 3503 c7 -3 16 -2 19 1 4 3 -2 6 -13 5 -11 0 -14 -3 -6 -6z"/>
<path d="M3186 3482 c-3 -5 1 -9 9 -9 8 0 12 4 9 9 -3 4 -7 8 -9 8 -2 0 -6 -4
-9 -8z"/>
<path d="M4360 3476 c0 -8 4 -17 9 -20 5 -4 7 3 4 14 -6 23 -13 26 -13 6z"/>
<path d="M610 3465 c0 -5 5 -17 10 -25 5 -8 10 -10 10 -5 0 6 -5 17 -10 25 -5
8 -10 11 -10 5z"/>
<path d="M1810 3459 c0 -5 5 -7 10 -4 6 3 10 8 10 11 0 2 -4 4 -10 4 -5 0 -10
-5 -10 -11z"/>
<path d="M4410 3461 c0 -6 4 -13 10 -16 6 -3 7 1 4 9 -7 18 -14 21 -14 7z"/>
<path d="M1830 3438 c0 -4 4 -8 9 -8 6 0 12 4 15 8 3 5 -1 9 -9 9 -8 0 -15 -4
-15 -9z"/>
<path d="M4340 3439 c0 -5 5 -7 10 -4 6 3 10 8 10 11 0 2 -4 4 -10 4 -5 0 -10
-5 -10 -11z"/>
<path d="M1894 3406 c1 -14 5 -29 9 -32 3 -3 4 6 3 20 -2 15 -6 29 -9 32 -3 4
-5 -6 -3 -20z"/>
<path d="M4310 3420 c0 -5 5 -10 10 -10 6 0 10 5 10 10 0 6 -4 10 -10 10 -5 0
-10 -4 -10 -10z"/>
<path d="M701 3393 c0 -11 3 -13 6 -5 2 6 10 9 15 6 7 -4 8 -2 4 4 -11 18 -26
14 -25 -5z"/>
<path d="M3106 3398 c3 -5 10 -6 15 -3 13 9 11 12 -6 12 -8 0 -12 -4 -9 -9z"/>
<path d="M3125 3379 c-4 -6 -4 -13 -1 -16 3 -4 6 -1 6 6 0 7 5 9 12 5 7 -4 8
-3 4 4 -9 15 -13 15 -21 1z"/>
<path d="M4275 3380 c-3 -5 -1 -10 4 -10 6 0 11 5 11 10 0 6 -2 10 -4 10 -3 0
-8 -4 -11 -10z"/>
<path d="M4356 3378 c3 -5 10 -6 15 -3 13 9 11 12 -6 12 -8 0 -12 -4 -9 -9z"/>
<path d="M716 3367 c-16 -12 -16 -13 2 -13 10 0 19 6 19 13 0 7 -1 13 -2 13
-1 0 -9 -6 -19 -13z"/>
<path d="M3065 3360 c10 -11 20 -20 23 -20 3 0 -3 9 -13 20 -10 11 -20 20 -23
20 -3 0 3 -9 13 -20z"/>
<path d="M4300 3365 c0 -2 6 -8 13 -14 10 -8 14 -7 14 2 0 8 -6 14 -14 14 -7
0 -13 -1 -13 -2z"/>
<path d="M742 3324 c10 -10 20 -15 24 -12 3 4 -5 12 -18 18 -22 12 -22 12 -6
-6z"/>
<path d="M1959 3313 c-13 -16 -12 -17 4 -4 9 7 17 15 17 17 0 8 -8 3 -21 -13z"/>
<path d="M3070 3319 c0 -5 5 -7 10 -4 6 3 10 8 10 11 0 2 -4 4 -10 4 -5 0 -10
-5 -10 -11z"/>
<path d="M3075 3300 c-13 -6 -15 -9 -5 -9 8 0 22 4 30 9 18 12 2 12 -25 0z"/>
<path d="M3029 3283 c-13 -16 -12 -17 4 -4 16 13 21 21 13 21 -2 0 -10 -8 -17
-17z"/>
<path d="M1938 3283 c6 -3 10 -9 6 -14 -8 -14 2 -11 14 4 8 10 6 13 -11 14
-12 0 -16 -1 -9 -4z"/>
<path d="M4210 3278 c0 -6 3 -8 7 -5 3 4 13 1 22 -6 14 -11 14 -10 2 6 -15 20
-31 22 -31 5z"/>
<path d="M1965 3260 c-3 -6 1 -7 9 -4 18 7 21 14 7 14 -6 0 -13 -4 -16 -10z"/>
<path d="M820 3251 c0 -7 -5 -9 -12 -5 -7 5 -8 3 -3 -5 5 -9 10 -10 18 -2 6 6
8 14 4 18 -4 3 -7 1 -7 -6z"/>
<path d="M836 3233 c-6 -14 -5 -15 5 -6 7 7 10 15 7 18 -3 3 -9 -2 -12 -12z"/>
<path d="M3016 3223 c-6 -14 -5 -15 5 -6 7 7 10 15 7 18 -3 3 -9 -2 -12 -12z"/>
<path d="M1986 3214 c-5 -14 -4 -15 9 -4 17 14 19 20 6 20 -5 0 -12 -7 -15
-16z"/>
<path d="M4150 3225 c0 -5 5 -17 10 -25 5 -8 10 -10 10 -5 0 6 -5 17 -10 25
-5 8 -10 11 -10 5z"/>
<path d="M850 3211 c0 -7 -4 -10 -9 -7 -11 7 -9 -21 2 -29 4 -3 5 -2 2 2 -3 3
0 12 7 20 6 7 8 16 4 20 -3 3 -6 1 -6 -6z"/>
<path d="M2030 3199 c0 -5 5 -7 10 -4 6 3 10 8 10 11 0 2 -4 4 -10 4 -5 0 -10
-5 -10 -11z"/>
<path d="M866 3184 c-5 -14 -4 -15 9 -4 17 14 19 20 6 20 -5 0 -12 -7 -15 -16z"/>
<path d="M4112 3196 c3 -4 2 -21 -2 -37 -5 -18 -5 -27 1 -24 5 4 9 15 9 25 0
14 5 18 18 13 19 -7 17 -4 -13 17 -11 8 -17 11 -13 6z"/>
<path d="M2071 3167 c-8 -10 -7 -14 2 -14 8 0 14 6 14 14 0 7 -1 13 -2 13 -2
0 -8 -6 -14 -13z"/>
<path d="M881 3152 c-1 -7 -5 -11 -10 -7 -5 3 -12 1 -15 -3 -7 -12 41 -9 51 2
4 5 3 6 -4 3 -6 -4 -14 -1 -16 5 -4 10 -6 10 -6 0z"/>
<path d="M2036 3142 c-3 -5 3 -16 14 -25 17 -14 19 -14 17 3 -1 11 -6 16 -16
12 -9 -3 -12 -1 -7 6 4 7 5 12 2 12 -3 0 -7 -4 -10 -8z"/>
<path d="M2947 3140 c10 -11 9 -16 -5 -26 -15 -12 -15 -12 6 -7 27 6 28 16 5
34 -15 11 -16 11 -6 -1z"/>
<path d="M4070 3131 c0 -6 4 -12 8 -15 5 -3 9 1 9 9 0 8 -4 15 -9 15 -4 0 -8
-4 -8 -9z"/>
<path d="M917 3119 c7 -7 15 -10 18 -7 3 3 -2 9 -12 12 -14 6 -15 5 -6 -5z"/>
<path d="M914 3093 c23 -27 36 -29 35 -5 0 11 -2 12 -6 4 -4 -10 -10 -9 -27 5
l-21 18 19 -22z"/>
<path d="M2893 3095 c0 -8 4 -12 9 -9 5 3 6 10 3 15 -9 13 -12 11 -12 -6z"/>
<path d="M4055 3100 c3 -5 8 -10 11 -10 2 0 4 5 4 10 0 6 -5 10 -11 10 -5 0
-7 -4 -4 -10z"/>
<path d="M2075 3090 c-3 -5 -2 -18 4 -27 7 -14 9 -12 8 10 -2 30 -3 31 -12 17z"/>
<path d="M960 3080 c0 -5 5 -10 11 -10 5 0 7 5 4 10 -3 6 -8 10 -11 10 -2 0
-4 -4 -4 -10z"/>
<path d="M2100 3078 c0 -4 4 -8 9 -8 6 0 12 4 15 8 3 5 -1 9 -9 9 -8 0 -15 -4
-15 -9z"/>
<path d="M2930 3076 c0 -9 -4 -14 -10 -11 -5 3 -10 1 -10 -4 0 -6 5 -11 10
-11 13 0 25 28 16 37 -3 4 -6 -1 -6 -11z"/>
<path d="M4035 3080 c3 -5 8 -10 11 -10 2 0 4 5 4 10 0 6 -5 10 -11 10 -5 0
-7 -4 -4 -10z"/>
<path d="M3997 3042 c-19 -20 -24 -31 -16 -42 8 -13 9 -13 7 2 -2 9 8 26 21
37 13 12 22 23 19 26 -2 3 -16 -8 -31 -23z"/>
<path d="M2112 3051 c-11 -7 -11 -9 0 -14 9 -3 15 1 15 9 0 8 -1 14 -1 14 -1
0 -7 -4 -14 -9z"/>
<path d="M962 3043 c11 -3 15 -11 12 -21 -5 -14 -4 -14 4 -2 13 18 6 30 -16
29 -16 -1 -16 -2 0 -6z"/>
<path d="M2175 3041 c-3 -5 -2 -12 3 -15 5 -3 9 1 9 9 0 17 -3 19 -12 6z"/>
<path d="M2881 3041 c-8 -5 -9 -11 -3 -15 5 -3 12 1 16 9 6 17 6 18 -13 6z"/>
<path d="M996 3023 c-6 -14 -5 -15 5 -6 7 7 10 15 7 18 -3 3 -9 -2 -12 -12z"/>
<path d="M4006 3003 c-6 -14 -5 -15 5 -6 7 7 10 15 7 18 -3 3 -9 -2 -12 -12z"/>
<path d="M1010 3001 c0 -5 7 -12 16 -15 14 -5 15 -4 4 9 -14 17 -20 19 -20 6z"/>
<path d="M2166 3002 c-3 -5 1 -9 9 -9 8 0 12 4 9 9 -3 4 -7 8 -9 8 -2 0 -6 -4
-9 -8z"/>
<path d="M2835 2999 c-3 -4 2 -6 10 -5 21 3 28 13 10 13 -9 0 -18 -4 -20 -8z"/>
<path d="M3959 2988 c0 -2 -2 -10 -4 -19 -3 -19 22 -21 29 -3 3 9 -1 11 -11 7
-11 -4 -14 -2 -9 5 4 7 5 12 2 12 -3 0 -6 -1 -7 -2z"/>
<path d="M2853 2965 c0 -8 4 -12 9 -9 5 3 6 10 3 15 -9 13 -12 11 -12 -6z"/>
<path d="M2185 2960 c-9 -15 -15 -54 -7 -46 7 7 8 11 11 37 0 5 6 7 13 3 7 -4
8 -3 4 4 -9 15 -13 15 -21 2z"/>
<path d="M4282 2940 c-7 -12 -17 -18 -22 -15 -6 3 -7 -1 -4 -9 3 -9 2 -16 -3
-16 -5 0 -17 -14 -27 -31 -11 -19 -23 -28 -32 -25 -9 3 -12 1 -9 -4 7 -11 -25
-70 -38 -70 -4 0 -5 4 -2 10 4 6 -1 7 -12 3 -16 -6 -17 -5 -3 13 14 18 14 18
-6 1 -11 -9 -24 -14 -29 -10 -4 5 -5 2 -1 -5 4 -7 11 -10 15 -8 4 3 13 1 20
-3 11 -7 10 -14 -4 -35 -10 -14 -21 -26 -25 -26 -8 0 -4 -123 5 -147 4 -12 -8
-18 -28 -14 -5 1 -5 -3 -2 -9 4 -6 14 -9 22 -5 13 4 14 3 3 -10 -8 -10 -9 -15
-1 -15 6 0 11 -5 11 -11 0 -6 -7 -9 -15 -6 -8 4 -17 1 -21 -5 -4 -7 -3 -8 4
-4 15 9 31 -25 22 -49 -4 -11 -5 -26 -3 -33 4 -8 -1 -10 -13 -6 -16 5 -16 4
-4 -5 19 -13 21 -101 3 -101 -7 0 -13 -5 -13 -11 0 -5 4 -8 8 -5 5 3 9 -1 9
-9 0 -16 -9 -19 -21 -8 -15 15 -31 9 -31 -12 0 -13 3 -21 8 -18 4 2 7 11 7 19
0 12 4 12 19 2 11 -7 17 -16 15 -20 -3 -5 -10 -6 -15 -3 -5 4 -12 -1 -15 -9
-3 -9 -9 -14 -13 -11 -4 2 -8 -2 -8 -9 0 -8 6 -12 14 -9 7 3 13 12 13 20 0 8
4 12 9 8 6 -3 6 -17 1 -34 -4 -16 -5 -33 -2 -37 4 -4 1 -4 -5 0 -9 5 -12 1
-11 -11 2 -33 -2 -54 -10 -49 -5 3 -9 -9 -10 -27 -1 -50 -7 -66 -28 -83 -10
-8 -13 -13 -6 -9 6 3 12 1 12 -4 0 -6 -5 -11 -11 -11 -6 0 -9 -6 -6 -14 3 -7
-1 -23 -8 -34 -8 -10 -11 -22 -8 -26 3 -3 1 -6 -5 -6 -7 0 -12 5 -12 12 0 6
-3 8 -6 5 -4 -4 -2 -13 4 -20 7 -8 8 -17 4 -21 -4 -4 -8 -12 -8 -17 -1 -5 -2
-14 -3 -19 -1 -7 -7 -7 -20 0 -17 9 -19 7 -16 -10 2 -12 -2 -23 -11 -27 -12
-4 -12 -7 3 -18 17 -13 17 -14 0 -21 -10 -3 -16 -13 -13 -20 3 -7 -5 -20 -17
-29 -12 -8 -18 -15 -14 -15 4 0 3 -9 -3 -20 -6 -11 -16 -20 -22 -20 -9 0 -9 3
0 12 7 7 12 16 12 22 0 5 -6 1 -14 -9 -7 -10 -11 -27 -8 -37 3 -12 -1 -18 -12
-18 -10 0 -14 6 -10 18 5 16 5 16 -6 -1 -6 -9 -15 -15 -20 -12 -5 3 -11 1 -15
-4 -3 -6 3 -8 13 -6 37 7 43 -10 17 -46 -14 -19 -28 -33 -30 -31 -3 1 -11 2
-17 2 -9 0 -8 -4 2 -10 13 -9 7 -14 -12 -11 -4 0 -5 -5 -2 -13 3 -8 0 -17 -7
-22 -8 -5 -10 -3 -4 7 5 8 5 11 0 7 -4 -4 -15 -2 -23 5 -13 11 -14 9 -2 -10
13 -20 12 -24 -13 -47 -15 -14 -27 -31 -27 -37 0 -7 -3 -9 -7 -5 -4 3 -12 -3
-19 -15 l-12 -22 -6 21 c-4 12 -12 22 -17 22 -13 0 -11 -18 3 -22 14 -5 3 -38
-12 -38 -6 0 -9 4 -6 8 2 4 0 14 -5 22 -9 13 -10 13 -6 0 2 -8 -3 -21 -12 -28
-14 -11 -14 -11 2 -6 9 3 17 2 17 -4 0 -13 -49 -22 -56 -11 -3 5 -10 9 -17 9
-6 0 -1 -7 11 -16 12 -8 28 -12 35 -8 8 6 8 3 -1 -9 -13 -15 -16 -15 -40 -1
-25 15 -25 15 -8 0 19 -15 19 -16 -8 -41 -28 -26 -42 -33 -31 -15 4 6 -1 7
-11 3 -11 -4 -15 -3 -10 5 3 6 3 13 -2 16 -4 2 -9 -4 -9 -15 -1 -10 2 -19 8
-19 17 0 9 -19 -12 -25 -13 -4 -27 0 -40 11 -18 16 -19 16 -13 1 3 -9 10 -17
15 -17 20 0 7 -18 -26 -36 -19 -10 -35 -22 -35 -26 0 -5 -5 -8 -10 -8 -7 0 -7
7 0 23 11 21 11 21 -4 2 -33 -41 -58 -65 -66 -60 -5 3 -12 1 -15 -5 -5 -8 -11
-8 -20 0 -10 8 -13 7 -11 -6 0 -9 -7 -18 -18 -20 -10 -1 -23 -7 -29 -13 -6 -6
-18 -11 -27 -11 -15 0 -69 -103 -112 -217 -12 -29 -24 -50 -29 -48 -4 3 -11 0
-15 -6 -4 -8 -3 -9 4 -5 15 9 15 -9 2 -35 -12 -22 8 -27 28 -7 7 7 12 9 12 5
0 -3 11 -2 25 3 16 6 25 6 25 0 0 -6 5 -10 10 -10 6 0 9 3 8 8 -2 4 0 8 4 10
4 2 19 9 34 17 15 7 33 11 40 8 8 -3 14 0 14 7 0 7 7 10 16 6 9 -4 13 -2 8 5
-4 7 -1 10 7 7 8 -3 13 -10 12 -15 -1 -5 5 -10 13 -10 10 0 11 4 4 11 -5 5
-10 13 -10 17 0 12 58 31 71 23 7 -4 10 -3 6 3 -8 12 20 27 42 24 8 -1 10 2 5
10 -4 8 -3 10 4 5 7 -4 12 -2 12 3 0 6 4 10 8 9 5 -2 34 14 65 34 48 31 58 34
65 21 8 -13 10 -13 15 1 4 10 3 15 -3 11 -6 -3 -10 -2 -10 3 0 12 27 24 54 26
11 1 21 8 23 16 4 13 3 13 -6 0 -5 -8 -13 -12 -16 -8 -10 10 54 50 66 42 7 -4
9 -3 6 3 -4 6 1 17 10 24 15 12 16 12 10 -4 -4 -11 -3 -16 3 -12 6 3 10 12 10
19 0 7 11 23 24 35 l24 22 16 -22 c9 -13 16 -19 16 -13 0 5 -5 15 -10 20 -12
12 -2 47 11 38 5 -3 9 0 9 6 0 7 7 9 16 6 11 -4 15 -2 11 7 -3 8 18 37 51 69
32 30 71 72 88 94 29 35 33 37 49 24 17 -14 17 -14 4 7 -12 20 -11 25 5 40 10
10 16 13 12 6 -7 -13 19 -12 31 2 4 4 3 5 -3 2 -7 -4 -15 0 -18 8 -3 9 1 18 9
21 8 4 12 11 8 17 -4 6 0 8 11 4 10 -4 15 -3 11 3 -3 6 2 23 11 40 15 24 20
27 33 17 12 -10 13 -9 3 10 -10 18 -9 24 5 32 10 6 14 11 10 11 -4 0 -3 9 3
20 8 15 18 19 37 16 14 -3 22 -2 18 2 -3 4 -11 8 -16 8 -23 3 -23 6 1 20 14 8
17 13 7 10 -15 -5 -16 -3 -6 16 8 15 13 17 19 9 5 -9 9 -8 13 4 4 9 3 13 -2
10 -19 -11 -18 11 2 30 17 17 19 17 14 3 -3 -10 -3 -20 2 -22 12 -8 10 27 -3
43 -9 11 -6 13 14 7 21 -6 22 -5 7 4 -17 11 -17 13 -2 36 8 13 13 24 10 24 -3
0 0 10 7 23 13 24 15 29 17 52 0 8 6 15 12 15 5 0 7 -5 3 -12 -4 -7 -3 -8 5
-4 7 5 8 13 2 23 -10 19 -3 53 12 53 6 0 8 3 5 6 -3 3 2 32 12 65 10 32 16 59
13 59 -3 0 0 7 7 15 7 9 10 18 8 21 -3 3 -2 23 3 45 5 21 12 56 15 77 3 20 11
40 18 44 8 6 8 8 -1 8 -7 0 -13 5 -13 11 0 5 5 7 10 4 6 -3 10 -1 10 4 0 6 -5
11 -11 11 -5 0 -8 4 -4 10 3 5 13 7 23 4 10 -3 8 0 -4 7 -15 7 -20 18 -16 34
2 13 9 22 16 19 6 -2 12 5 13 16 1 11 -3 20 -8 20 -6 0 -7 -4 -4 -10 3 -5 2
-10 -3 -10 -16 0 -9 133 8 148 8 8 9 11 3 7 -7 -3 -13 -3 -14 2 0 4 -2 32 -4
61 -2 44 -1 51 11 41 12 -10 13 -9 8 5 -3 9 -14 16 -23 16 -14 0 -14 2 -1 10
8 5 10 10 4 10 -7 0 -12 10 -11 23 0 12 -3 42 -7 67 -4 29 -4 40 2 31 7 -9 12
-10 16 -2 4 6 12 8 18 5 7 -4 8 -2 4 4 -4 6 -12 9 -19 7 -23 -9 -37 12 -40 58
-1 26 -5 47 -9 47 -5 0 -8 7 -8 15 0 21 -13 19 -28 -5z m-349 -1165 c-3 -8
-10 -15 -15 -15 -7 0 -6 5 1 13 6 8 7 18 3 22 -4 5 -2 5 5 1 7 -4 10 -13 6
-21z"/>
<path d="M2796 2942 c-3 -5 1 -9 9 -9 8 0 12 4 9 9 -3 4 -7 8 -9 8 -2 0 -6 -4
-9 -8z"/>
<path d="M693 2918 c-2 -27 -11 -83 -14 -83 -2 0 -8 -43 -10 -78 -1 -15 -12
-35 -23 -44 -17 -13 -18 -14 -3 -9 17 5 18 1 13 -44 -3 -28 -8 -55 -11 -60 -3
-4 -2 -10 2 -13 5 -2 2 -2 -4 -1 -7 2 -13 -1 -13 -6 0 -6 4 -10 10 -10 5 0 9
-11 8 -24 -1 -14 -6 -22 -10 -20 -4 3 -8 0 -8 -5 0 -6 4 -11 8 -11 4 0 9 -11
10 -26 1 -14 -2 -23 -8 -19 -6 3 -10 1 -10 -4 0 -6 4 -11 8 -11 4 0 9 -16 10
-35 2 -19 -2 -35 -8 -35 -5 0 -10 -5 -10 -11 0 -5 4 -8 9 -4 5 3 12 1 16 -5 6
-9 -8 -14 -28 -11 -5 1 -6 -3 -2 -9 3 -6 10 -8 15 -5 5 3 11 1 15 -5 3 -5 0
-10 -7 -10 -10 0 -10 -2 -1 -8 13 -8 26 -62 14 -62 -4 0 -12 5 -18 11 -9 9
-11 7 -9 -7 2 -12 10 -18 22 -16 16 3 16 2 3 -14 -8 -11 -9 -15 -1 -10 7 4 13
2 13 -6 5 -45 16 -99 24 -106 2 -3 -1 -12 -8 -20 -9 -13 -9 -14 1 -8 6 4 12 3
12 -3 0 -5 -8 -15 -17 -20 -11 -6 -13 -11 -5 -11 7 0 11 -4 7 -9 -3 -5 -1 -12
4 -16 6 -3 8 3 6 15 -2 11 0 20 6 20 8 0 14 -37 10 -67 -1 -7 2 -13 7 -13 5 0
12 -11 14 -25 4 -18 2 -23 -6 -18 -7 5 -3 0 8 -10 11 -10 20 -26 21 -35 0 -10
4 -23 8 -29 4 -7 14 -30 22 -53 11 -30 11 -39 2 -35 -7 4 -5 1 3 -7 24 -20 62
-99 56 -114 -3 -8 1 -14 8 -14 8 0 17 -7 20 -16 4 -10 2 -13 -7 -9 -6 4 -3 -2
9 -12 25 -22 57 -73 47 -73 -5 0 0 -5 10 -11 9 -6 15 -14 12 -20 -4 -5 -1 -9
6 -9 7 0 4 -7 -7 -16 -18 -15 -18 -15 4 -9 23 7 31 -9 10 -19 -7 -3 -2 -3 12
1 23 5 24 5 10 -12 -11 -14 -11 -17 -1 -11 10 7 12 3 6 -15 -7 -24 -7 -24 10
-4 16 20 16 20 12 -2 -3 -15 -1 -20 8 -17 7 3 16 1 20 -5 3 -6 -1 -14 -9 -17
-9 -3 -16 -11 -16 -16 0 -6 7 -5 15 2 12 10 19 10 27 2 7 -7 9 -12 5 -12 -3 0
16 -21 43 -46 33 -31 47 -51 41 -58 -5 -6 -5 -19 0 -31 9 -18 9 -18 5 3 -3 15
1 22 11 22 11 0 14 -7 11 -23 -3 -15 0 -24 8 -24 7 0 10 5 7 11 -4 7 -1 7 6 0
10 -9 10 -17 2 -32 -10 -18 -8 -20 9 -17 11 2 22 0 25 -6 4 -5 1 -9 -6 -9 -7
0 -10 -3 -6 -6 3 -3 11 -3 17 1 8 5 8 11 -1 21 -6 7 -15 11 -20 8 -10 -6 -12
9 -3 19 8 8 44 -25 44 -40 0 -7 4 -12 9 -11 5 2 25 -11 44 -29 29 -26 35 -38
31 -60 -3 -20 -2 -24 5 -13 5 8 7 18 4 24 -4 5 1 7 11 3 10 -4 20 -7 22 -7 3
0 2 -4 -1 -10 -3 -5 -1 -10 5 -10 14 0 130 -78 148 -99 8 -9 11 -10 7 -3 -11
21 4 13 15 -9 8 -14 8 -24 1 -33 -15 -17 22 -15 43 3 12 10 16 10 16 2 0 -7 4
-9 10 -6 6 4 8 -6 6 -24 -3 -25 0 -29 17 -25 11 2 24 9 28 15 5 8 8 8 13 0 4
-6 16 -11 27 -11 10 0 20 -7 20 -15 3 -29 4 -33 13 -42 5 -4 6 -3 3 3 -4 7 0
15 9 18 24 9 36 7 28 -6 -5 -8 -2 -9 11 -4 13 5 25 0 39 -17 12 -12 17 -17 12
-10 -11 17 -11 17 74 -12 88 -30 86 -30 93 -5 3 11 1 17 -4 14 -5 -3 -12 3
-15 13 -3 10 -11 29 -17 43 -6 14 -11 30 -12 35 0 6 -6 16 -13 24 -16 17 -10
36 11 35 9 -1 14 2 11 8 -3 5 -14 6 -23 3 -20 -6 -46 38 -35 57 4 6 2 8 -3 5
-6 -4 -14 0 -17 9 -9 23 -7 31 4 14 7 -12 9 -11 8 6 -1 12 -9 21 -16 20 -8 -1
-17 5 -19 12 -3 7 1 10 10 6 8 -3 17 -2 20 3 3 5 -9 8 -26 8 -53 -3 -93 24
-88 58 2 11 -17 9 -24 -3 -3 -6 -1 -10 6 -10 7 0 9 -3 6 -6 -8 -8 -38 16 -32
25 2 4 -5 7 -17 7 -12 -1 -23 4 -25 11 -3 7 4 10 19 7 21 -4 21 -4 3 5 -12 5
-24 5 -30 0 -14 -14 -25 -11 -25 7 0 8 -4 13 -10 9 -17 -11 -50 18 -44 40 4
16 3 17 -5 5 -5 -8 -13 -11 -17 -7 -4 3 -2 13 5 20 9 11 7 17 -6 28 -16 12
-17 12 -5 -2 10 -13 9 -19 -5 -30 -15 -12 -16 -12 -10 5 7 17 6 17 -10 5 -15
-12 -16 -12 -11 2 3 9 2 22 -4 30 -8 11 -9 10 -4 -3 7 -24 -10 -23 -27 2 -8
11 -17 17 -22 12 -4 -4 -5 1 -2 10 3 10 3 17 -1 16 -15 -4 -52 14 -47 23 4 5
0 9 -7 9 -21 0 -101 89 -95 105 4 9 1 12 -9 8 -8 -3 -23 5 -34 18 -18 22 -18
25 -2 37 15 11 14 12 -7 10 -16 -2 -32 9 -58 40 -35 41 -40 58 -9 26 9 -8 16
-11 16 -5 0 5 -4 12 -10 16 -5 3 -7 12 -3 20 3 8 0 15 -7 15 -6 0 -8 -4 -5
-10 3 -5 -1 -10 -9 -10 -19 0 -21 11 -5 27 8 8 5 14 -11 23 -15 8 -20 8 -16 1
4 -6 3 -11 -2 -11 -6 0 -13 7 -16 16 -3 8 -2 12 4 9 6 -3 10 -1 10 4 0 6 -6
11 -14 11 -7 0 -19 6 -25 14 -10 11 -8 17 6 26 17 11 17 11 0 6 -21 -7 -59 48
-49 72 4 11 2 13 -8 7 -8 -5 -11 -4 -6 3 3 6 -1 17 -9 25 -8 9 -15 21 -15 27
0 6 -9 28 -20 49 -10 21 -16 42 -12 46 4 3 7 12 7 18 0 7 8 12 17 12 9 0 20 4
25 8 4 5 1 7 -7 5 -8 -2 -14 2 -13 8 1 6 -4 11 -12 11 -7 0 -11 -6 -8 -13 2
-6 -1 -15 -6 -19 -6 -3 -9 -11 -6 -16 4 -5 4 -9 1 -9 -3 0 -10 9 -16 21 -9 15
-8 24 1 35 10 12 9 18 -6 32 -18 16 -18 16 -6 -1 8 -9 11 -20 8 -23 -8 -8 -26
29 -25 52 0 10 -3 28 -7 38 -6 14 -5 17 3 12 8 -5 10 -2 6 8 -3 9 -10 13 -15
10 -5 -3 -9 2 -9 10 0 8 7 19 16 24 15 8 15 10 0 15 -10 4 -15 3 -11 -3 3 -6
1 -10 -4 -10 -6 0 -11 6 -12 13 0 6 -2 23 -4 37 -1 14 3 31 9 39 8 11 8 13 -1
7 -13 -7 -18 9 -14 52 1 12 -2 22 -6 22 -5 0 -9 34 -8 76 0 42 -3 78 -7 80 -4
3 -4 15 1 27 4 12 7 41 6 64 -1 28 2 40 9 36 7 -4 6 -1 -1 8 -8 9 -9 20 -3 29
6 8 10 20 10 25 0 6 -4 4 -9 -4 -6 -9 -11 -10 -15 -2 -4 6 -4 11 1 11 4 0 -3
7 -16 16 -16 12 -22 23 -18 41 3 17 1 21 -6 14 -7 -7 -14 -5 -23 7 -17 22 -17
29 -1 35 6 2 4 3 -6 1 -24 -3 -33 22 -16 44 13 15 12 16 -3 3 -15 -11 -21 -11
-33 -1 -8 7 -15 19 -15 26 0 8 -5 14 -10 14 -6 0 -16 11 -22 25 -14 32 -44 33
-45 3z m502 -1298 c-3 -5 -11 -10 -16 -10 -6 0 -7 5 -4 10 3 6 11 10 16 10 6
0 7 -4 4 -10z m395 -740 c0 -19 -18 -19 -23 -1 -3 14 -1 18 9 14 8 -3 14 -9
14 -13z m70 -39 c0 -17 -18 -21 -24 -6 -3 9 0 15 9 15 8 0 15 -4 15 -9z m95
-41 c3 -5 1 -10 -4 -10 -6 0 -11 5 -11 10 0 6 2 10 4 10 3 0 8 -4 11 -10z"/>
<path d="M1040 2931 c0 -6 4 -13 10 -16 6 -3 7 1 4 9 -7 18 -14 21 -14 7z"/>
<path d="M2835 2929 c-4 -6 -5 -12 -2 -15 2 -3 7 2 10 11 7 17 1 20 -8 4z"/>
<path d="M2790 2916 c0 -3 9 -10 20 -16 11 -6 20 -8 20 -6 0 3 -9 10 -20 16
-11 6 -20 8 -20 6z"/>
<path d="M1061 2900 c-9 -5 -4 -7 13 -7 29 0 32 2 13 10 -8 3 -20 2 -26 -3z"/>
<path d="M2190 2901 c0 -6 4 -13 10 -16 6 -3 7 1 4 9 -7 18 -14 21 -14 7z"/>
<path d="M2216 2898 c3 -5 10 -6 15 -3 13 9 11 12 -6 12 -8 0 -12 -4 -9 -9z"/>
<path d="M2235 2879 c-3 -4 2 -6 10 -5 21 3 28 13 10 13 -9 0 -18 -4 -20 -8z"/>
<path d="M3960 2880 c-9 -6 -10 -10 -3 -10 6 0 15 5 18 10 8 12 4 12 -15 0z"/>
<path d="M4170 2881 c0 -6 4 -12 8 -15 5 -3 9 1 9 9 0 8 -4 15 -9 15 -4 0 -8
-4 -8 -9z"/>
<path d="M655 2860 c-3 -5 -1 -10 4 -10 6 0 11 5 11 10 0 6 -2 10 -4 10 -3 0
-8 -4 -11 -10z"/>
<path d="M2790 2859 c0 -5 -5 -7 -12 -3 -7 4 -8 3 -4 -5 6 -9 11 -9 22 0 17
14 18 19 4 19 -5 0 -10 -5 -10 -11z"/>
<path d="M2242 2845 c-17 -9 -19 -14 -9 -18 7 -3 19 4 25 14 7 10 11 19 10 18
-2 -1 -13 -7 -26 -14z"/>
<path d="M2736 2842 c-3 -5 1 -9 9 -9 8 0 12 4 9 9 -3 4 -7 8 -9 8 -2 0 -6 -4
-9 -8z"/>
<path d="M3890 2843 c5 -2 8 -9 5 -13 -3 -5 -1 -11 4 -14 5 -4 8 2 7 11 -2 9
-8 18 -15 19 -6 1 -7 0 -1 -3z"/>
<path d="M635 2831 c-3 -5 -2 -12 3 -15 5 -3 9 1 9 9 0 17 -3 19 -12 6z"/>
<path d="M2287 2819 c7 -7 15 -10 18 -7 3 3 -2 9 -12 12 -14 6 -15 5 -6 -5z"/>
<path d="M2754 2816 c-10 -8 -17 -16 -14 -19 3 -2 14 4 24 14 23 22 18 25 -10
5z"/>
<path d="M1106 2798 c3 -4 11 -5 19 -1 21 7 19 12 -4 10 -11 0 -18 -5 -15 -9z"/>
<path d="M2716 2793 c-6 -14 -5 -15 5 -6 7 7 10 15 7 18 -3 3 -9 -2 -12 -12z"/>
<path d="M850 2779 c0 -5 5 -7 10 -4 6 3 10 8 10 11 0 2 -4 4 -10 4 -5 0 -10
-5 -10 -11z"/>
<path d="M2275 2779 c-4 -6 -4 -13 -1 -16 3 -4 6 -1 6 6 0 7 5 9 12 5 7 -4 8
-3 4 4 -9 15 -13 15 -21 1z"/>
<path d="M2313 2783 c4 -3 1 -13 -6 -22 -11 -14 -10 -14 5 -2 16 12 16 31 1
31 -4 0 -3 -3 0 -7z"/>
<path d="M1156 2753 c-6 -14 -5 -15 5 -6 7 7 10 15 7 18 -3 3 -9 -2 -12 -12z"/>
<path d="M595 2740 c-3 -5 -1 -10 4 -10 6 0 11 5 11 10 0 6 -2 10 -4 10 -3 0
-8 -4 -11 -10z"/>
<path d="M630 2740 c0 -5 5 -10 10 -10 6 0 10 5 10 10 0 6 -4 10 -10 10 -5 0
-10 -4 -10 -10z"/>
<path d="M1192 2736 c7 -8 15 -12 17 -11 5 6 -10 25 -20 25 -5 0 -4 -6 3 -14z"/>
<path d="M2297 2719 c8 -16 20 -32 26 -35 8 -5 8 -3 0 7 -7 7 -13 21 -13 30 0
9 -6 19 -14 22 -11 5 -11 1 1 -24z"/>
<path d="M3786 2742 c-3 -5 1 -9 9 -9 8 0 12 4 9 9 -3 4 -7 8 -9 8 -2 0 -6 -4
-9 -8z"/>
<path d="M4390 2740 c0 -5 5 -10 11 -10 5 0 7 5 4 10 -3 6 -8 10 -11 10 -2 0
-4 -4 -4 -10z"/>
<path d="M894 2729 c3 -15 36 -21 36 -7 0 6 -6 8 -14 5 -8 -3 -17 -2 -20 4 -2
5 -3 4 -2 -2z"/>
<path d="M2695 2731 c8 -14 -5 -40 -18 -37 -7 1 -9 1 -4 -1 4 -3 5 -9 1 -14
-3 -5 -2 -9 3 -9 4 0 15 13 25 29 14 26 14 30 2 35 -8 3 -13 2 -9 -3z"/>
<path d="M2330 2716 c0 -8 4 -17 9 -20 5 -4 7 3 4 14 -6 23 -13 26 -13 6z"/>
<path d="M1175 2700 c3 -5 8 -10 11 -10 2 0 4 5 4 10 0 6 -5 10 -11 10 -5 0
-7 -4 -4 -10z"/>
<path d="M4056 2702 c-3 -5 1 -9 9 -9 8 0 12 4 9 9 -3 4 -7 8 -9 8 -2 0 -6 -4
-9 -8z"/>
<path d="M2370 2679 c0 -5 5 -7 10 -4 6 3 10 8 10 11 0 2 -4 4 -10 4 -5 0 -10
-5 -10 -11z"/>
<path d="M4386 2678 c3 -5 10 -6 15 -3 13 9 11 12 -6 12 -8 0 -12 -4 -9 -9z"/>
<path d="M4073 2665 c0 -8 4 -12 9 -9 5 3 6 10 3 15 -9 13 -12 11 -12 -6z"/>
<path d="M630 2659 c0 -5 5 -7 10 -4 6 3 10 8 10 11 0 2 -4 4 -10 4 -5 0 -10
-5 -10 -11z"/>
<path d="M1230 2660 c0 -6 7 -10 15 -10 8 0 15 2 15 4 0 2 -7 6 -15 10 -8 3
-15 1 -15 -4z"/>
<path d="M2341 2649 c5 -10 15 -21 22 -25 8 -6 8 -3 -1 9 -8 9 -11 20 -8 25 3
5 -1 9 -9 9 -10 0 -11 -5 -4 -18z"/>
<path d="M2641 2661 c-9 -6 -10 -11 -2 -15 6 -4 11 -2 11 4 0 6 5 8 12 4 7 -4
8 -3 4 4 -8 14 -7 14 -25 3z"/>
<path d="M3735 2660 c3 -5 8 -10 11 -10 2 0 4 5 4 10 0 6 -5 10 -11 10 -5 0
-7 -4 -4 -10z"/>
<path d="M4031 2647 c-13 -21 -12 -21 5 -5 10 10 16 20 13 22 -3 3 -11 -5 -18
-17z"/>
<path d="M936 2647 c3 -10 9 -15 12 -12 3 3 0 11 -7 18 -10 9 -11 8 -5 -6z"/>
<path d="M2394 2632 c3 -5 0 -13 -6 -15 -9 -4 -10 -6 -1 -6 17 -1 25 16 12 25
-7 4 -9 3 -5 -4z"/>
<path d="M1230 2620 c0 -5 9 -8 20 -7 21 1 18 10 -5 13 -8 1 -15 -2 -15 -6z"/>
<path d="M4074 2621 c3 -5 -1 -14 -9 -21 -8 -7 -15 -17 -15 -23 0 -5 9 2 20
16 23 28 25 37 9 37 -5 0 -8 -4 -5 -9z"/>
<path d="M4375 2620 c-3 -5 -1 -10 4 -10 6 0 11 5 11 10 0 6 -2 10 -4 10 -3 0
-8 -4 -11 -10z"/>
<path d="M620 2609 c0 -5 -4 -8 -9 -4 -5 3 -12 1 -15 -4 -4 -5 2 -8 11 -7 15
3 33 26 19 26 -3 0 -6 -5 -6 -11z"/>
<path d="M1280 2600 c-6 -11 -8 -20 -6 -20 3 0 10 9 16 20 6 11 8 20 6 20 -3
0 -10 -9 -16 -20z"/>
<path d="M2615 2609 c-4 -6 -5 -12 -2 -15 2 -3 7 2 10 11 7 17 1 20 -8 4z"/>
<path d="M2400 2600 c-13 -8 -12 -10 3 -10 9 0 17 5 17 10 0 12 -1 12 -20 0z"/>
<path d="M3690 2600 c0 -5 5 -10 10 -10 6 0 10 5 10 10 0 6 -4 10 -10 10 -5 0
-10 -4 -10 -10z"/>
<path d="M4399 2608 c-5 -18 -6 -38 -1 -34 7 8 12 36 6 36 -2 0 -4 -1 -5 -2z"/>
<path d="M935 2580 c-3 -5 -1 -10 4 -10 6 0 11 5 11 10 0 6 -2 10 -4 10 -3 0
-8 -4 -11 -10z"/>
<path d="M3730 2580 c0 -5 5 -10 11 -10 5 0 7 5 4 10 -3 6 -8 10 -11 10 -2 0
-4 -4 -4 -10z"/>
<path d="M4075 2581 c-3 -5 -2 -12 3 -15 5 -3 9 1 9 9 0 17 -3 19 -12 6z"/>
<path d="M2386 2568 c3 -5 10 -6 15 -3 13 9 11 12 -6 12 -8 0 -12 -4 -9 -9z"/>
<path d="M2416 2565 c-3 -8 -1 -15 4 -15 6 0 10 7 10 15 0 8 -2 15 -4 15 -2 0
-6 -7 -10 -15z"/>
<path d="M616 2557 c3 -10 9 -15 12 -12 3 3 0 11 -7 18 -10 9 -11 8 -5 -6z"/>
<path d="M2515 2550 c10 -11 20 -20 23 -20 3 0 -3 9 -13 20 -10 11 -20 20 -23
20 -3 0 3 -9 13 -20z"/>
<path d="M2560 2555 c-7 -9 -11 -17 -9 -20 3 -2 10 5 17 15 14 24 10 26 -8 5z"/>
<path d="M930 2551 c0 -6 4 -13 10 -16 6 -3 7 1 4 9 -7 18 -14 21 -14 7z"/>
<path d="M595 2540 c-3 -5 -1 -10 4 -10 6 0 11 5 11 10 0 6 -2 10 -4 10 -3 0
-8 -4 -11 -10z"/>
<path d="M4050 2541 c0 -6 4 -13 10 -16 6 -3 7 1 4 9 -7 18 -14 21 -14 7z"/>
<path d="M2425 2533 c6 -4 10 -15 10 -23 -1 -8 4 -22 11 -30 7 -8 17 -28 23
-43 10 -25 13 -27 33 -15 13 7 27 12 32 13 17 0 14 32 -5 43 -18 12 -24 6 -20
-20 0 -4 -8 -6 -19 -5 -20 1 -27 12 -12 20 4 2 2 2 -5 1 -7 -2 -15 1 -18 6 -4
6 0 10 7 10 8 1 5 7 -7 16 -11 8 -19 18 -17 22 2 3 -2 8 -10 10 -8 2 -9 1 -3
-5z m109 -80 c4 -10 4 -14 0 -10 -4 4 -14 1 -23 -6 -14 -10 -14 -10 -4 4 7 9
10 19 6 22 -3 4 -2 7 4 7 6 0 14 -8 17 -17z"/>
<path d="M927 2519 c7 -7 15 -10 18 -7 3 3 -2 9 -12 12 -14 6 -15 5 -6 -5z"/>
<path d="M2493 2518 c3 -9 1 -19 -6 -22 -9 -3 -9 -5 0 -5 18 -1 23 13 11 29
-8 12 -9 12 -5 -2z"/>
<path d="M2517 2519 c7 -7 15 -10 18 -7 3 3 -2 9 -12 12 -14 6 -15 5 -6 -5z"/>
<path d="M615 2501 c4 -8 2 -17 -6 -22 -9 -6 -10 -9 -2 -9 19 0 27 21 13 33
-10 9 -11 9 -5 -2z"/>
<path d="M917 2499 c7 -7 15 -10 18 -7 3 3 -2 9 -12 12 -14 6 -15 5 -6 -5z"/>
<path d="M3656 2493 c-6 -14 -5 -15 5 -6 7 7 10 15 7 18 -3 3 -9 -2 -12 -12z"/>
<path d="M4050 2499 c0 -5 5 -7 10 -4 6 3 10 8 10 11 0 2 -4 4 -10 4 -5 0 -10
-5 -10 -11z"/>
<path d="M4380 2506 c0 -2 7 -7 16 -10 8 -3 12 -2 9 4 -6 10 -25 14 -25 6z"/>
<path d="M3615 2480 c3 -5 8 -10 11 -10 2 0 4 5 4 10 0 6 -5 10 -11 10 -5 0
-7 -4 -4 -10z"/>
<path d="M925 2470 c-3 -6 1 -7 9 -4 18 7 21 14 7 14 -6 0 -13 -4 -16 -10z"/>
<path d="M3655 2460 c3 -5 8 -10 11 -10 2 0 4 5 4 10 0 6 -5 10 -11 10 -5 0
-7 -4 -4 -10z"/>
<path d="M4050 2461 c0 -6 4 -13 10 -16 6 -3 7 1 4 9 -7 18 -14 21 -14 7z"/>
<path d="M4075 2460 c3 -5 8 -10 11 -10 2 0 4 5 4 10 0 6 -5 10 -11 10 -5 0
-7 -4 -4 -10z"/>
<path d="M4385 2460 c-3 -6 1 -7 9 -4 18 7 21 14 7 14 -6 0 -13 -4 -16 -10z"/>
<path d="M929 2443 c-13 -16 -12 -17 4 -4 9 7 17 15 17 17 0 8 -8 3 -21 -13z"/>
<path d="M3611 2451 c-8 -5 -9 -11 -3 -15 5 -3 12 1 16 9 6 17 6 18 -13 6z"/>
<path d="M566 2438 c3 -5 10 -6 15 -3 13 9 11 12 -6 12 -8 0 -12 -4 -9 -9z"/>
<path d="M1345 2440 c-3 -6 1 -7 9 -4 18 7 21 14 7 14 -6 0 -13 -4 -16 -10z"/>
<path d="M1396 2435 c-9 -26 -7 -32 5 -12 6 10 9 21 6 23 -2 3 -7 -2 -11 -11z"/>
<path d="M937 2423 c-10 -10 -8 -33 3 -33 5 0 6 7 3 17 -5 12 -3 14 7 8 9 -5
11 -4 6 3 -8 14 -10 14 -19 5z"/>
<path d="M4070 2419 c0 -5 5 -7 10 -4 6 3 10 8 10 11 0 2 -4 4 -10 4 -5 0 -10
-5 -10 -11z"/>
<path d="M1430 2390 c0 -5 5 -10 11 -10 5 0 7 5 4 10 -3 6 -8 10 -11 10 -2 0
-4 -4 -4 -10z"/>
<path d="M4054 2370 c0 -13 4 -16 10 -10 7 7 7 13 0 20 -6 6 -10 3 -10 -10z"/>
<path d="M3590 2376 c0 -2 8 -10 18 -17 15 -13 16 -12 3 4 -13 16 -21 21 -21
13z"/>
<path d="M1434 2345 c0 -13 4 -21 8 -19 5 3 6 9 3 14 -3 4 0 10 7 12 8 3 7 6
-3 10 -11 4 -15 -1 -15 -17z"/>
<path d="M940 2343 c10 -15 18 -19 26 -13 6 6 15 6 19 2 5 -4 5 -1 1 6 -4 7
-12 10 -17 6 -5 -3 -17 0 -26 8 -15 12 -15 11 -3 -9z"/>
<path d="M4377 2339 c7 -7 15 -10 18 -7 3 3 -2 9 -12 12 -14 6 -15 5 -6 -5z"/>
<path d="M1475 2320 c10 -11 20 -20 23 -20 3 0 -3 9 -13 20 -10 11 -20 20 -23
20 -3 0 3 -9 13 -20z"/>
<path d="M4058 2328 c5 -5 16 -8 23 -6 8 3 3 7 -10 11 -17 4 -21 3 -13 -5z"/>
<path d="M615 2309 c-4 -6 -5 -12 -2 -15 2 -3 7 2 10 11 7 17 1 20 -8 4z"/>
<path d="M4041 2313 c-1 -17 16 -25 25 -12 4 7 3 9 -4 5 -5 -3 -13 0 -15 6 -4
9 -6 10 -6 1z"/>
<path d="M935 2301 c-3 -5 -1 -12 5 -16 15 -9 54 -15 46 -7 -7 7 -11 8 -37 11
-5 0 -7 6 -4 11 3 6 4 10 1 10 -3 0 -7 -4 -11 -9z"/>
<path d="M4393 2287 c0 -8 6 -14 14 -14 9 0 10 4 2 14 -6 7 -12 13 -14 13 -1
0 -2 -6 -2 -13z"/>
<path d="M1454 2283 c3 -4 18 -8 32 -9 14 -2 24 0 20 3 -3 3 -17 7 -32 9 -14
1 -23 0 -20 -3z"/>
<path d="M3506 2275 c4 -8 11 -15 16 -15 6 0 5 6 -2 15 -7 8 -14 15 -16 15 -2
0 -1 -7 2 -15z"/>
<path d="M3540 2286 c0 -2 8 -10 18 -17 15 -13 16 -12 3 4 -13 16 -21 21 -21
13z"/>
<path d="M1510 2250 c0 -5 5 -10 11 -10 5 0 7 5 4 10 -3 6 -8 10 -11 10 -2 0
-4 -4 -4 -10z"/>
<path d="M957 2223 c-4 -3 -7 -11 -7 -17 0 -6 5 -5 12 2 6 6 9 14 7 17 -3 3
-9 2 -12 -2z"/>
<path d="M4360 2220 c-8 -5 -10 -10 -5 -10 6 0 17 5 25 10 8 5 11 10 5 10 -5
0 -17 -5 -25 -10z"/>
<path d="M628 2198 c5 -5 16 -8 23 -6 8 3 3 7 -10 11 -17 4 -21 3 -13 -5z"/>
<path d="M3424 2194 c-18 -14 -18 -15 4 -4 12 6 22 13 22 15 0 8 -5 6 -26 -11z"/>
<path d="M4355 2189 c-4 -6 -5 -12 -2 -15 2 -3 7 2 10 11 7 17 1 20 -8 4z"/>
<path d="M4371 2164 c0 -11 3 -14 6 -6 3 7 2 16 -1 19 -3 4 -6 -2 -5 -13z"/>
<path d="M3416 2161 c-3 -4 0 -13 6 -21 8 -12 9 -11 4 4 -5 13 -2 17 9 13 8
-4 16 -3 19 1 3 4 -4 8 -14 9 -11 1 -22 -2 -24 -6z"/>
<path d="M656 2145 c4 -8 11 -15 16 -15 6 0 5 6 -2 15 -7 8 -14 15 -16 15 -2
0 -1 -7 2 -15z"/>
<path d="M1575 2140 c-3 -5 -1 -10 4 -10 6 0 11 5 11 10 0 6 -2 10 -4 10 -3 0
-8 -4 -11 -10z"/>
<path d="M4348 2133 c6 -2 10 -8 8 -12 -3 -4 1 -8 9 -8 11 0 12 4 4 14 -6 7
-17 13 -23 12 -7 0 -6 -2 2 -6z"/>
<path d="M994 2119 c-3 -6 -2 -15 3 -20 5 -5 9 -1 9 11 0 23 -2 24 -12 9z"/>
<path d="M1597 2123 c-10 -9 -9 -23 1 -23 5 0 9 7 9 15 0 17 -1 18 -10 8z"/>
<path d="M4031 2114 c0 -11 3 -14 6 -6 3 7 2 16 -1 19 -3 4 -6 -2 -5 -13z"/>
<path d="M4390 2120 c0 -5 5 -10 11 -10 5 0 7 5 4 10 -3 6 -8 10 -11 10 -2 0
-4 -4 -4 -10z"/>
<path d="M3993 2105 c0 -8 4 -12 9 -9 5 3 6 10 3 15 -9 13 -12 11 -12 -6z"/>
<path d="M660 2106 c0 -2 7 -7 16 -10 8 -3 12 -2 9 4 -6 10 -25 14 -25 6z"/>
<path d="M661 2074 c0 -11 3 -14 6 -6 3 7 2 16 -1 19 -3 4 -6 -2 -5 -13z"/>
<path d="M1566 2078 c3 -5 10 -6 15 -3 13 9 11 12 -6 12 -8 0 -12 -4 -9 -9z"/>
<path d="M980 2066 c0 -2 7 -6 15 -10 8 -3 15 -1 15 4 0 6 -7 10 -15 10 -8 0
-15 -2 -15 -4z"/>
<path d="M1633 2030 c4 -24 27 -51 27 -32 0 7 -4 12 -9 12 -6 0 -8 9 -6 20 2
11 0 20 -6 20 -5 0 -7 -9 -6 -20z"/>
<path d="M3354 2035 c-4 -8 -10 -13 -14 -10 -5 3 -11 2 -14 -3 -2 -4 6 -8 19
-8 13 0 21 4 18 9 -3 5 1 13 8 18 11 7 11 9 1 9 -7 0 -15 -7 -18 -15z"/>
<path d="M4328 2043 c6 -2 9 -10 6 -15 -4 -7 -2 -8 5 -4 13 9 5 26 -12 25 -9
0 -8 -2 1 -6z"/>
<path d="M670 2000 c0 -6 7 -10 15 -10 8 0 15 2 15 4 0 2 -7 6 -15 10 -8 3
-15 1 -15 -4z"/>
<path d="M4312 1998 c2 -6 10 -13 16 -14 7 -1 8 0 2 3 -5 2 -8 9 -4 14 3 5 0
9 -6 9 -7 0 -10 -5 -8 -12z"/>
<path d="M3975 1990 c-3 -6 1 -7 9 -4 18 7 21 14 7 14 -6 0 -13 -4 -16 -10z"/>
<path d="M3281 1953 c-10 -24 -9 -26 2 -11 8 10 17 15 21 11 4 -4 4 0 0 10 -8
22 -9 22 -23 -10z"/>
<path d="M3333 1965 c0 -8 4 -12 9 -9 5 3 6 10 3 15 -9 13 -12 11 -12 -6z"/>
<path d="M693 1955 c0 -7 6 -11 14 -8 7 3 13 6 13 8 0 2 -6 5 -13 8 -8 3 -14
-1 -14 -8z"/>
<path d="M1654 1956 c1 -8 5 -18 8 -22 4 -3 5 1 4 10 -1 8 -5 18 -8 22 -4 3
-5 -1 -4 -10z"/>
<path d="M1030 1931 c0 -6 4 -13 10 -16 6 -3 7 1 4 9 -7 18 -14 21 -14 7z"/>
<path d="M1056 1927 c3 -10 9 -15 12 -12 3 3 0 11 -7 18 -10 9 -11 8 -5 -6z"/>
<path d="M3966 1925 c-9 -26 -7 -32 5 -12 6 10 9 21 6 23 -2 3 -7 -2 -11 -11z"/>
<path d="M690 1921 c0 -6 4 -13 10 -16 6 -3 7 1 4 9 -7 18 -14 21 -14 7z"/>
<path d="M4292 1921 c-11 -7 -11 -9 0 -14 9 -3 15 1 15 9 0 8 -1 14 -1 14 -1
0 -7 -4 -14 -9z"/>
<path d="M1700 1906 c0 -2 7 -6 15 -10 8 -3 15 -1 15 4 0 6 -7 10 -15 10 -8 0
-15 -2 -15 -4z"/>
<path d="M4336 1898 c3 -5 10 -6 15 -3 13 9 11 12 -6 12 -8 0 -12 -4 -9 -9z"/>
<path d="M717 1893 c-4 -3 -7 -11 -7 -17 0 -6 5 -5 12 2 6 6 9 14 7 17 -3 3
-9 2 -12 -2z"/>
<path d="M1056 1883 c-6 -14 -5 -15 5 -6 7 7 10 15 7 18 -3 3 -9 -2 -12 -12z"/>
<path d="M736 1873 c-6 -14 -5 -15 5 -6 7 7 10 15 7 18 -3 3 -9 -2 -12 -12z"/>
<path d="M1696 1882 c-3 -5 1 -9 9 -9 8 0 12 4 9 9 -3 4 -7 8 -9 8 -2 0 -6 -4
-9 -8z"/>
<path d="M3920 1860 c-12 -7 -10 -9 7 -7 12 0 19 5 17 9 -6 10 -6 10 -24 -2z"/>
<path d="M1736 1843 c-6 -14 -5 -15 5 -6 7 7 10 15 7 18 -3 3 -9 -2 -12 -12z"/>
<path d="M730 1838 c0 -6 3 -8 7 -5 3 4 13 1 22 -6 14 -11 14 -10 2 6 -15 20
-31 22 -31 5z"/>
<path d="M1060 1845 c0 -7 30 -13 34 -7 3 4 -4 9 -15 9 -10 1 -19 0 -19 -2z"/>
<path d="M3226 1838 c3 -4 9 -8 15 -8 5 0 9 4 9 8 0 5 -7 9 -15 9 -8 0 -12 -4
-9 -9z"/>
<path d="M4286 1838 c3 -5 10 -6 15 -3 13 9 11 12 -6 12 -8 0 -12 -4 -9 -9z"/>
<path d="M3927 1829 c7 -7 15 -10 18 -7 3 3 -2 9 -12 12 -14 6 -15 5 -6 -5z"/>
<path d="M1095 1820 c-3 -5 -1 -10 4 -10 6 0 11 5 11 10 0 6 -2 10 -4 10 -3 0
-8 -4 -11 -10z"/>
<path d="M4250 1805 c-11 -13 -11 -18 0 -28 10 -9 11 -9 6 1 -4 7 -2 19 4 27
7 8 10 15 7 15 -2 0 -10 -7 -17 -15z"/>
<path d="M762 1805 c4 -4 3 -16 -3 -26 -5 -11 -7 -19 -5 -19 3 0 10 9 16 19 7
15 7 22 -2 27 -7 4 -10 4 -6 -1z"/>
<path d="M1153 1795 c0 -8 4 -12 9 -9 5 3 6 10 3 15 -9 13 -12 11 -12 -6z"/>
<path d="M1775 1799 c-4 -6 -5 -12 -2 -15 2 -3 7 2 10 11 7 17 1 20 -8 4z"/>
<path d="M1111 1767 c-13 -21 -12 -21 5 -5 10 10 16 20 13 22 -3 3 -11 -5 -18
-17z"/>
<path d="M1793 1760 c0 -23 3 -28 9 -16 5 9 5 23 0 32 -6 12 -9 7 -9 -16z"/>
<path d="M3856 1778 c3 -5 10 -6 15 -3 13 9 11 12 -6 12 -8 0 -12 -4 -9 -9z"/>
<path d="M3190 1769 c0 -5 -5 -7 -12 -3 -7 4 -8 3 -4 -4 4 -6 13 -9 21 -6 8 4
12 10 9 15 -7 12 -14 11 -14 -2z"/>
<path d="M4226 1744 c-5 -14 -4 -15 9 -4 17 14 19 20 6 20 -5 0 -12 -7 -15
-16z"/>
<path d="M782 1730 c7 -14 11 -28 10 -32 -1 -5 2 -8 7 -8 6 0 9 9 8 20 -1 10
-3 17 -6 15 -2 -3 -10 3 -18 13 -12 15 -13 14 -1 -8z"/>
<path d="M1120 1740 c-13 -8 -12 -10 3 -10 9 0 17 5 17 10 0 12 -1 12 -20 0z"/>
<path d="M3156 1741 c-3 -5 1 -11 9 -14 9 -4 12 -1 8 9 -6 16 -10 17 -17 5z"/>
<path d="M3870 1740 c0 -5 7 -7 15 -4 8 4 15 8 15 10 0 2 -7 4 -15 4 -8 0 -15
-4 -15 -10z"/>
<path d="M1156 1727 c3 -10 9 -15 12 -12 3 3 0 11 -7 18 -10 9 -11 8 -5 -6z"/>
<path d="M1185 1720 c-3 -6 1 -7 9 -4 18 7 21 14 7 14 -6 0 -13 -4 -16 -10z"/>
<path d="M1820 1710 c-8 -5 -12 -12 -9 -15 4 -3 12 1 19 10 14 17 11 19 -10 5z"/>
<path d="M3855 1711 c-3 -5 0 -13 6 -17 8 -5 9 -3 4 6 -6 10 -4 12 9 7 10 -4
15 -3 11 3 -8 13 -22 13 -30 1z"/>
<path d="M1830 1685 c-11 -13 -10 -14 4 -9 9 3 16 10 16 15 0 13 -6 11 -20 -6z"/>
<path d="M817 1676 c-4 -10 -3 -15 3 -11 6 3 10 1 10 -6 0 -7 3 -10 6 -6 3 3
2 13 -4 22 -8 16 -9 16 -15 1z"/>
<path d="M3825 1679 c-11 -16 -1 -19 13 -3 7 8 8 14 3 14 -5 0 -13 -5 -16 -11z"/>
<path d="M1236 1662 c-3 -5 1 -9 9 -9 8 0 12 4 9 9 -3 4 -7 8 -9 8 -2 0 -6 -4
-9 -8z"/>
<path d="M3135 1659 c-4 -6 -5 -12 -2 -15 2 -3 7 2 10 11 7 17 1 20 -8 4z"/>
<path d="M1833 1645 c0 -8 4 -15 9 -15 4 0 8 4 8 9 0 6 -4 12 -8 15 -5 3 -9
-1 -9 -9z"/>
<path d="M800 1646 c0 -2 8 -10 18 -17 15 -13 16 -12 3 4 -13 16 -21 21 -21
13z"/>
<path d="M4191 1627 c-13 -21 -12 -21 5 -5 10 10 16 20 13 22 -3 3 -11 -5 -18
-17z"/>
<path d="M3095 1631 c-9 -15 15 -25 28 -12 9 9 7 10 -7 5 -13 -5 -17 -4 -12 4
4 7 5 12 2 12 -3 0 -7 -4 -11 -9z"/>
<path d="M1855 1620 c-3 -5 -1 -10 4 -10 6 0 11 5 11 10 0 6 -2 10 -4 10 -3 0
-8 -4 -11 -10z"/>
<path d="M855 1565 c0 -13 3 -21 8 -18 4 2 7 10 7 18 0 8 -3 16 -7 18 -5 3 -8
-5 -8 -18z"/>
<path d="M1273 1565 c0 -8 4 -12 9 -9 5 3 6 10 3 15 -9 13 -12 11 -12 -6z"/>
<path d="M3786 1563 c-6 -14 -5 -15 5 -6 7 7 10 15 7 18 -3 3 -9 -2 -12 -12z"/>
<path d="M4121 1554 c0 -11 3 -14 6 -6 3 7 2 16 -1 19 -3 4 -6 -2 -5 -13z"/>
<path d="M3755 1550 c3 -5 8 -10 11 -10 2 0 4 5 4 10 0 6 -5 10 -11 10 -5 0
-7 -4 -4 -10z"/>
<path d="M1244 1538 c-4 -7 -4 -10 1 -6 4 4 14 0 22 -10 13 -15 13 -15 3 6
-12 25 -16 27 -26 10z"/>
<path d="M4155 1541 c-3 -5 -2 -12 3 -15 5 -3 9 1 9 9 0 17 -3 19 -12 6z"/>
<path d="M1293 1525 c0 -8 3 -13 5 -10 3 3 12 -1 21 -7 10 -8 9 -4 -3 10 -23
26 -23 26 -23 7z"/>
<path d="M1913 1517 c1 -7 -4 -11 -11 -9 -8 1 -11 -2 -7 -8 5 -8 12 -7 23 2
10 7 18 13 20 14 2 1 -4 4 -12 7 -9 4 -15 1 -13 -6z"/>
<path d="M3034 1519 c-4 -7 -3 -9 4 -5 5 3 13 0 15 -6 4 -9 6 -10 6 -1 1 17
-16 25 -25 12z"/>
<path d="M3713 1509 c-2 -23 3 -25 10 -4 4 8 3 16 -1 19 -4 3 -9 -4 -9 -15z"/>
<path d="M3073 1505 c0 -8 4 -12 9 -9 5 3 6 10 3 15 -9 13 -12 11 -12 -6z"/>
<path d="M890 1499 c0 -5 5 -7 10 -4 6 3 10 8 10 11 0 2 -4 4 -10 4 -5 0 -10
-5 -10 -11z"/>
<path d="M4119 1493 c-12 -16 -12 -17 2 -6 9 7 20 9 24 5 5 -4 5 -1 1 6 -9 16
-11 15 -27 -5z"/>
<path d="M911 1487 c-8 -10 -7 -14 4 -14 8 0 12 4 9 8 -2 4 2 10 8 12 8 4 9 6
2 6 -6 1 -17 -5 -23 -12z"/>
<path d="M1941 1484 c0 -11 3 -14 6 -6 3 7 2 16 -1 19 -3 4 -6 -2 -5 -13z"/>
<path d="M1310 1458 c0 -4 7 -8 15 -8 8 0 15 4 15 8 0 5 -7 9 -15 9 -8 0 -15
-4 -15 -9z"/>
<path d="M1910 1466 c0 -2 7 -7 16 -10 8 -3 12 -2 9 4 -6 10 -25 14 -25 6z"/>
<path d="M1955 1460 c-3 -5 -1 -10 4 -10 6 0 11 5 11 10 0 6 -2 10 -4 10 -3 0
-8 -4 -11 -10z"/>
<path d="M3070 1466 c0 -2 7 -7 16 -10 8 -3 12 -2 9 4 -6 10 -25 14 -25 6z"/>
<path d="M4070 1460 c0 -5 5 -10 10 -10 6 0 10 5 10 10 0 6 -4 10 -10 10 -5 0
-10 -4 -10 -10z"/>
<path d="M3670 1440 c0 -5 7 -7 15 -4 8 4 15 8 15 10 0 2 -7 4 -15 4 -8 0 -15
-4 -15 -10z"/>
<path d="M1355 1419 c-4 -6 -5 -12 -2 -15 2 -3 7 2 10 11 7 17 1 20 -8 4z"/>
<path d="M1410 1419 c0 -5 5 -7 10 -4 6 3 10 8 10 11 0 2 -4 4 -10 4 -5 0 -10
-5 -10 -11z"/>
<path d="M1907 1419 c7 -7 15 -10 18 -7 3 3 -2 9 -12 12 -14 6 -15 5 -6 -5z"/>
<path d="M3645 1421 c-3 -5 -2 -12 3 -15 5 -3 9 1 9 9 0 17 -3 19 -12 6z"/>
<path d="M2985 1411 c-6 -11 13 -26 22 -17 4 3 0 6 -8 7 -8 0 -6 4 6 9 16 7
17 9 3 9 -9 1 -19 -3 -23 -8z"/>
<path d="M4050 1410 c-8 -5 -12 -12 -9 -15 4 -3 12 1 19 10 14 17 11 19 -10 5z"/>
<path d="M1370 1400 c0 -6 7 -13 15 -16 8 -4 15 -12 15 -19 0 -7 7 -18 15 -25
10 -9 15 -9 15 -1 0 6 -5 11 -11 11 -6 0 -9 9 -6 20 3 10 2 19 -2 18 -19 -2
-31 3 -26 12 3 6 1 10 -4 10 -6 0 -11 -5 -11 -10z"/>
<path d="M1433 1373 c0 -9 4 -10 14 -2 7 6 13 12 13 14 0 1 -6 2 -13 2 -8 0
-14 -6 -14 -14z"/>
<path d="M1980 1380 c-8 -5 -10 -10 -5 -10 6 0 17 5 25 10 8 5 11 10 5 10 -5
0 -17 -5 -25 -10z"/>
<path d="M2970 1380 c0 -5 5 -10 11 -10 5 0 7 5 4 10 -3 6 -8 10 -11 10 -2 0
-4 -4 -4 -10z"/>
<path d="M2020 1330 c-9 -6 -10 -10 -3 -10 6 0 15 5 18 10 8 12 4 12 -15 0z"/>
<path d="M1030 1321 c0 -10 19 -25 25 -20 1 2 -3 10 -11 17 -8 7 -14 8 -14 3z"/>
<path d="M2980 1326 c0 -2 8 -10 18 -17 15 -13 16 -12 3 4 -13 16 -21 21 -21
13z"/>
<path d="M3956 1307 c3 -10 9 -15 12 -12 3 3 0 11 -7 18 -10 9 -11 8 -5 -6z"/>
<path d="M1468 1303 c6 -2 18 -2 25 0 6 3 1 5 -13 5 -14 0 -19 -2 -12 -5z"/>
<path d="M2030 1306 c0 -2 7 -6 15 -10 8 -3 15 -1 15 4 0 6 -7 10 -15 10 -8 0
-15 -2 -15 -4z"/>
<path d="M3453 1289 c-2 -23 3 -25 10 -4 4 8 3 16 -1 19 -4 3 -9 -4 -9 -15z"/>
<path d="M1066 1284 c-4 -9 -4 -19 -1 -22 3 -3 5 0 5 7 0 7 4 9 10 6 6 -3 7 1
4 9 -8 20 -10 20 -18 0z"/>
<path d="M3940 1294 c0 -6 7 -19 16 -30 14 -18 14 -18 3 6 -14 31 -19 36 -19
24z"/>
<path d="M3916 1263 c-4 -9 -2 -21 4 -27 8 -8 9 -6 4 8 -5 13 -4 17 4 12 8 -5
10 -2 6 8 -8 20 -10 20 -18 -1z"/>
<path d="M1097 1263 c-10 -10 -8 -33 3 -33 5 0 7 8 3 18 -6 15 -3 15 18 -3
l24 -20 -19 23 c-22 25 -20 24 -29 15z"/>
<path d="M2034 1255 c3 -23 12 -26 13 -5 1 11 -2 20 -7 20 -4 0 -7 -7 -6 -15z"/>
<path d="M2934 1258 c-4 -7 -4 -10 1 -6 4 4 15 2 24 -5 14 -11 14 -10 2 6 -16
20 -18 21 -27 5z"/>
<path d="M3475 1260 c-13 -6 -15 -9 -5 -9 8 0 22 4 30 9 18 12 2 12 -25 0z"/>
<path d="M2900 1240 c0 -5 5 -10 10 -10 6 0 10 5 10 10 0 6 -4 10 -10 10 -5 0
-10 -4 -10 -10z"/>
<path d="M2070 1229 c0 -5 5 -7 10 -4 6 3 10 8 10 11 0 2 -4 4 -10 4 -5 0 -10
-5 -10 -11z"/>
<path d="M1643 1198 c25 -34 32 -37 15 -5 -7 12 -12 25 -11 28 1 3 -4 6 -12 6
-9 0 -7 -9 8 -29z"/>
<path d="M2884 1209 c-3 -6 -1 -16 6 -22 10 -9 11 -9 5 2 -4 8 -2 17 6 22 9 6
10 9 2 9 -6 0 -15 -5 -19 -11z"/>
<path d="M3407 1209 c7 -7 15 -10 18 -7 3 3 -2 9 -12 12 -14 6 -15 5 -6 -5z"/>
<path d="M3848 1198 c-17 -33 -18 -45 -2 -45 10 0 11 4 5 10 -6 6 -4 18 6 33
8 13 13 24 10 24 -4 0 -12 -10 -19 -22z"/>
<path d="M3345 1199 c-4 -6 -5 -12 -2 -15 2 -3 7 2 10 11 7 17 1 20 -8 4z"/>
<path d="M3875 1199 c-3 -4 2 -6 10 -5 21 3 28 13 10 13 -9 0 -18 -4 -20 -8z"/>
<path d="M2075 1190 c-3 -6 1 -7 9 -4 18 7 21 14 7 14 -6 0 -13 -4 -16 -10z"/>
<path d="M1630 1181 c0 -6 4 -13 10 -16 6 -3 7 1 4 9 -7 18 -14 21 -14 7z"/>
<path d="M2910 1179 c0 -5 5 -7 10 -4 6 3 10 8 10 11 0 2 -4 4 -10 4 -5 0 -10
-5 -10 -11z"/>
<path d="M3351 1167 c-13 -21 -12 -21 5 -5 10 10 16 20 13 22 -3 3 -11 -5 -18
-17z"/>
<path d="M1681 1164 c0 -11 3 -14 6 -6 3 7 2 16 -1 19 -3 4 -6 -2 -5 -13z"/>
<path d="M2101 1173 c-1 -6 -4 -20 -7 -30 -5 -17 -5 -17 6 0 6 10 9 23 6 30
-3 9 -5 9 -5 0z"/>
<path d="M3290 1160 c-9 -6 -10 -10 -3 -10 6 0 15 5 18 10 8 12 4 12 -15 0z"/>
<path d="M3810 1156 c0 -8 4 -17 9 -20 5 -4 7 3 4 14 -6 23 -13 26 -13 6z"/>
<path d="M2855 1151 c-3 -5 0 -13 6 -17 8 -4 9 -3 5 4 -9 15 6 16 21 1 8 -8
13 -7 18 2 5 7 4 10 -3 5 -6 -3 -13 -2 -17 4 -8 13 -22 13 -30 1z"/>
<path d="M3268 1133 c7 -3 16 -2 19 1 4 3 -2 6 -13 5 -11 0 -14 -3 -6 -6z"/>
<path d="M1816 1122 c-2 -4 -1 -14 4 -22 7 -11 9 -9 7 8 -1 24 -3 26 -11 14z"/>
<path d="M3214 1113 c1 -7 6 -16 11 -20 4 -4 5 -2 1 5 -9 15 6 16 22 0 9 -9
12 -9 12 0 0 7 -5 12 -11 12 -5 0 -8 4 -5 8 2 4 -4 8 -14 8 -9 0 -17 -6 -16
-13z"/>
<path d="M3800 1126 c0 -2 8 -10 18 -17 15 -13 16 -12 3 4 -13 16 -21 21 -21
13z"/>
<path d="M1245 1100 c-16 -7 -17 -9 -3 -9 9 -1 20 4 23 9 7 11 7 11 -20 0z"/>
<path d="M2873 1085 c0 -8 4 -12 9 -9 5 3 6 10 3 15 -9 13 -12 11 -12 -6z"/>
<path d="M3180 1089 c0 -5 -4 -8 -9 -5 -5 3 -12 -1 -15 -9 -4 -13 -2 -14 14
-5 18 10 28 30 15 30 -3 0 -5 -5 -5 -11z"/>
<path d="M3750 1092 c0 -15 28 -23 36 -9 4 7 4 9 -1 5 -4 -4 -14 -3 -22 3 -8
7 -13 8 -13 1z"/>
<path d="M1265 1080 c-3 -6 1 -7 9 -4 18 7 21 14 7 14 -6 0 -13 -4 -16 -10z"/>
<path d="M2110 1081 c0 -6 4 -13 10 -16 6 -3 7 1 4 9 -7 18 -14 21 -14 7z"/>
<path d="M1275 1060 c-3 -6 1 -7 9 -4 18 7 21 14 7 14 -6 0 -13 -4 -16 -10z"/>
<path d="M1820 1066 c0 -2 7 -7 16 -10 8 -3 12 -2 9 4 -6 10 -25 14 -25 6z"/>
<path d="M3698 1059 c-10 -5 -18 -15 -18 -20 0 -6 7 -3 16 5 8 9 20 13 26 10
7 -4 8 -2 4 4 -8 14 -7 14 -28 1z"/>
<path d="M2830 1049 c0 -5 -5 -7 -12 -3 -7 4 -8 3 -4 -5 6 -9 11 -9 22 0 17
14 18 19 4 19 -5 0 -10 -5 -10 -11z"/>
<path d="M2174 1032 c3 -5 0 -13 -6 -15 -9 -4 -10 -6 -1 -6 17 -1 25 16 12 25
-7 4 -9 3 -5 -4z"/>
<path d="M2799 1028 c-11 -38 -1 -49 21 -23 11 13 10 14 -5 9 -13 -5 -16 -4
-11 4 4 7 5 12 2 12 -3 0 -6 -1 -7 -2z"/>
<path d="M3690 1016 c0 -2 8 -10 18 -17 15 -13 16 -12 3 4 -13 16 -21 21 -21
13z"/>
<path d="M3673 995 c0 -8 4 -12 9 -9 5 3 6 10 3 15 -9 13 -12 11 -12 -6z"/>
<path d="M3073 985 c0 -8 4 -12 9 -9 5 3 6 10 3 15 -9 13 -12 11 -12 -6z"/>
<path d="M3605 989 c-4 -6 -5 -12 -2 -15 2 -3 7 2 10 11 7 17 1 20 -8 4z"/>
<path d="M1398 973 c7 -3 16 -2 19 1 4 3 -2 6 -13 5 -11 0 -14 -3 -6 -6z"/>
<path d="M1933 967 c0 -8 6 -14 14 -14 9 0 10 4 2 14 -6 7 -12 13 -14 13 -1 0
-2 -6 -2 -13z"/>
<path d="M2194 961 c0 -11 4 -17 8 -15 4 3 8 12 8 20 0 8 -4 14 -8 14 -4 0 -8
-9 -8 -19z"/>
<path d="M2780 973 c0 -6 8 -17 18 -24 16 -13 16 -13 2 6 -8 11 -16 22 -17 24
-2 2 -3 0 -3 -6z"/>
<path d="M1426 962 c-3 -5 1 -9 9 -9 8 0 12 4 9 9 -3 4 -7 8 -9 8 -2 0 -6 -4
-9 -8z"/>
<path d="M3046 962 c-3 -5 1 -9 9 -9 8 0 12 4 9 9 -3 4 -7 8 -9 8 -2 0 -6 -4
-9 -8z"/>
<path d="M1455 940 c-3 -5 -1 -10 4 -10 6 0 11 5 11 10 0 6 -2 10 -4 10 -3 0
-8 -4 -11 -10z"/>
<path d="M1970 940 c0 -5 5 -10 11 -10 5 0 7 5 4 10 -3 6 -8 10 -11 10 -2 0
-4 -4 -4 -10z"/>
<path d="M2213 935 c-3 -9 -3 -18 -1 -21 3 -3 8 4 11 16 6 23 -1 27 -10 5z"/>
<path d="M2774 942 c3 -5 0 -12 -6 -15 -7 -2 -10 -7 -7 -11 3 -4 12 0 18 8 9
11 9 16 0 22 -7 4 -9 3 -5 -4z"/>
<path d="M3015 940 c-3 -5 -1 -10 4 -10 6 0 11 5 11 10 0 6 -2 10 -4 10 -3 0
-8 -4 -11 -10z"/>
<path d="M1390 920 c0 -5 5 -10 11 -10 5 0 7 5 4 10 -3 6 -8 10 -11 10 -2 0
-4 -4 -4 -10z"/>
<path d="M1475 920 c-3 -5 -2 -10 4 -10 5 0 13 5 16 10 3 6 2 10 -4 10 -5 0
-13 -4 -16 -10z"/>
<path d="M1495 900 c-3 -5 -1 -10 4 -10 6 0 11 5 11 10 0 6 -2 10 -4 10 -3 0
-8 -4 -11 -10z"/>
<path d="M2190 901 c0 -6 4 -13 10 -16 6 -3 7 1 4 9 -7 18 -14 21 -14 7z"/>
<path d="M2990 906 c0 -2 7 -7 16 -10 8 -3 12 -2 9 4 -6 10 -25 14 -25 6z"/>
<path d="M2785 880 c10 -11 20 -20 23 -20 3 0 -3 9 -13 20 -10 11 -20 20 -23
20 -3 0 3 -9 13 -20z"/>
<path d="M2955 891 c-3 -5 -2 -12 3 -15 5 -3 9 1 9 9 0 17 -3 19 -12 6z"/>
<path d="M3474 880 c0 -13 4 -16 10 -10 7 7 7 13 0 20 -6 6 -10 3 -10 -10z"/>
<path d="M1515 881 c-3 -5 0 -13 6 -17 7 -4 9 -3 5 4 -3 5 0 13 6 15 9 4 10 6
1 6 -6 1 -14 -3 -18 -8z"/>
<path d="M3440 880 c-9 -6 -10 -10 -3 -10 6 0 15 5 18 10 8 12 4 12 -15 0z"/>
<path d="M3507 879 c7 -7 15 -10 18 -7 3 3 -2 9 -12 12 -14 6 -15 5 -6 -5z"/>
<path d="M1957 869 c7 -7 15 -10 18 -7 3 3 -2 9 -12 12 -14 6 -15 5 -6 -5z"/>
<path d="M2236 863 c-6 -14 -5 -15 5 -6 7 7 10 15 7 18 -3 3 -9 -2 -12 -12z"/>
<path d="M1590 845 c-11 -13 -10 -14 4 -9 9 3 16 10 16 15 0 13 -6 11 -20 -6z"/>
<path d="M1996 847 c3 -10 9 -15 12 -12 3 3 0 11 -7 18 -10 9 -11 8 -5 -6z"/>
<path d="M3410 850 c-9 -6 -10 -10 -3 -10 6 0 15 5 18 10 8 12 4 12 -15 0z"/>
<path d="M3453 845 c0 -8 4 -12 9 -9 5 3 6 10 3 15 -9 13 -12 11 -12 -6z"/>
<path d="M2240 840 c-8 -5 -10 -10 -5 -10 6 0 17 5 25 10 8 5 11 10 5 10 -5 0
-17 -5 -25 -10z"/>
<path d="M2730 840 c0 -5 5 -10 10 -10 6 0 10 5 10 10 0 6 -4 10 -10 10 -5 0
-10 -4 -10 -10z"/>
<path d="M2974 838 c-4 -7 -4 -10 1 -6 4 4 15 2 24 -5 14 -11 14 -10 2 6 -16
20 -18 21 -27 5z"/>
<path d="M3326 822 c-3 -5 1 -9 9 -9 8 0 12 4 9 9 -3 4 -7 8 -9 8 -2 0 -6 -4
-9 -8z"/>
<path d="M1675 811 c-3 -5 -2 -12 3 -15 5 -3 9 1 9 9 0 17 -3 19 -12 6z"/>
<path d="M3360 800 c-9 -6 -10 -10 -3 -10 6 0 15 5 18 10 8 12 4 12 -15 0z"/>
<path d="M3390 801 c0 -6 4 -13 10 -16 6 -3 7 1 4 9 -7 18 -14 21 -14 7z"/>
<path d="M1653 785 c0 -8 4 -12 9 -9 5 3 6 10 3 15 -9 13 -12 11 -12 -6z"/>
<path d="M2275 789 c-4 -6 -5 -12 -2 -15 2 -3 7 2 10 11 7 17 1 20 -8 4z"/>
<path d="M3250 780 c0 -5 5 -10 11 -10 5 0 7 5 4 10 -3 6 -8 10 -11 10 -2 0
-4 -4 -4 -10z"/>
<path d="M3305 760 c-3 -6 1 -7 9 -4 18 7 21 14 7 14 -6 0 -13 -4 -16 -10z"/>
<path d="M1730 746 c0 -2 7 -7 16 -10 8 -3 12 -2 9 4 -6 10 -25 14 -25 6z"/>
<path d="M1806 742 c-3 -5 1 -9 9 -9 8 0 12 4 9 9 -3 4 -7 8 -9 8 -2 0 -6 -4
-9 -8z"/>
<path d="M1770 736 c0 -2 8 -10 18 -17 15 -13 16 -12 3 4 -13 16 -21 21 -21
13z"/>
<path d="M2300 731 c0 -7 -5 -9 -12 -5 -8 4 -10 3 -5 -2 5 -5 14 -9 20 -9 7
-1 11 -7 9 -14 -1 -7 2 -10 8 -6 8 5 7 12 -2 23 -7 10 -14 19 -15 21 -2 2 -3
-1 -3 -8z"/>
<path d="M2690 720 c0 -5 5 -10 10 -10 6 0 10 5 10 10 0 6 -4 10 -10 10 -5 0
-10 -4 -10 -10z"/>
<path d="M3195 720 c3 -5 8 -10 11 -10 2 0 4 5 4 10 0 6 -5 10 -11 10 -5 0 -7
-4 -4 -10z"/>
<path d="M1930 706 c0 -2 7 -7 16 -10 8 -3 12 -2 9 4 -6 10 -25 14 -25 6z"/>
<path d="M2314 645 c0 -13 4 -21 8 -19 5 3 6 9 3 14 -3 4 0 10 7 12 8 3 7 6
-3 10 -11 4 -15 -1 -15 -17z"/>
<path d="M2680 640 c-9 -6 -10 -10 -3 -10 6 0 15 5 18 10 8 12 4 12 -15 0z"/>
<path d="M2334 606 c1 -8 5 -18 8 -22 4 -3 5 1 4 10 -1 8 -5 18 -8 22 -4 3 -5
-1 -4 -10z"/>
<path d="M2650 600 c0 -5 5 -10 10 -10 6 0 10 5 10 10 0 6 -4 10 -10 10 -5 0
-10 -4 -10 -10z"/>
<path d="M2625 589 c-4 -6 -5 -12 -2 -15 2 -3 7 2 10 11 7 17 1 20 -8 4z"/>
<path d="M2358 563 c7 -3 16 -2 19 1 4 3 -2 6 -13 5 -11 0 -14 -3 -6 -6z"/>
<path d="M2385 509 c-4 -6 -5 -12 -2 -15 2 -3 7 2 10 11 7 17 1 20 -8 4z"/>
<path d="M2355 500 c3 -5 8 -10 11 -10 2 0 4 5 4 10 0 6 -5 10 -11 10 -5 0 -7
-4 -4 -10z"/>
<path d="M2393 445 c0 -8 3 -13 5 -10 3 3 12 -1 20 -8 13 -11 14 -9 1 11 -16
26 -26 28 -26 7z"/>
<path d="M2579 418 c-5 -18 -6 -38 -1 -34 7 8 12 36 6 36 -2 0 -4 -1 -5 -2z"/>
<path d="M2550 330 c0 -5 5 -10 11 -10 5 0 7 5 4 10 -3 6 -8 10 -11 10 -2 0
-4 -4 -4 -10z"/>
</g>
</svg>
